<svg xmlns="http://www.w3.org/2000/svg" viewBox="0 0 120.34 44.23"><defs><style>.cls-1{fill:#777;}.cls-2{fill:#fff;}</style></defs><title>Asset 13</title><g id="Layer_2" data-name="Layer 2"><g id="Layer_1-2" data-name="Layer 1"><path class="cls-1" d="M119,44.23H1.35C.61,44.23,0,43.09,0,41.7V2.53C0,1.14.61,0,1.35,0H119c.74,0,1.35,1.14,1.35,2.53V41.7C120.34,43.09,119.73,44.23,119,44.23Z"/><path class="cls-2" d="M30.32,24.42V27.2a6.26,6.26,0,0,1-2.05,5,7.38,7.38,0,0,1-5,1.79H19.83a8.41,8.41,0,0,1-5.51-1.79,6.17,6.17,0,0,1-2.18-5.06V16.74a6.09,6.09,0,0,1,2.2-5,8.57,8.57,0,0,1,5.57-1.77H23a7.67,7.67,0,0,1,5.13,1.72,6.13,6.13,0,0,1,2.05,5v2.54H23.93v-.74a2.78,2.78,0,0,0-.48-1.87A1.94,1.94,0,0,0,22,16.05h-.9c-1.34,0-2,.78-2,2.35v6.84a3.36,3.36,0,0,0,.45,2,1.81,1.81,0,0,0,1.56.61h1.11a1.63,1.63,0,0,0,1.43-.57A3.24,3.24,0,0,0,24,25.45v-1Z"/><path class="cls-2" d="M47,33.54h-5.5V33.3a5.42,5.42,0,0,1-2.69.58H37.58a6.3,6.3,0,0,1-4.32-1.44,4.88,4.88,0,0,1-1.62-3.84V25.24a4.07,4.07,0,0,1,1.62-3.51,7.44,7.44,0,0,1,4.45-1.19,6.18,6.18,0,0,1,2.65.42c0-.86-.72-1.29-2.14-1.29a13.59,13.59,0,0,0-3.17.41,9.88,9.88,0,0,0-2.91,1.15V14.78a14.48,14.48,0,0,1,3.43-1,25.41,25.41,0,0,1,4.36-.45q3.75-.06,5.41,1.46c1.1,1,1.65,2.69,1.65,5Zm-6-5.71V25.72a2,2,0,0,0-1.42-.4h-.77a1.42,1.42,0,0,0-1,.35,1.22,1.22,0,0,0-.35.92v.48a1.27,1.27,0,0,0,.39,1,1.53,1.53,0,0,0,1.09.37h.68A1.48,1.48,0,0,0,41,27.83Z"/><path class="cls-2" d="M61.25,13.51v6.77a9.44,9.44,0,0,0-1.64.25,8.25,8.25,0,0,0-1.65.6,3.53,3.53,0,0,0-1.34,1.17,3,3,0,0,0-.52,1.78v9.46H49.23V14h6.53V15.2A4.81,4.81,0,0,1,58,13.94,9.12,9.12,0,0,1,61.25,13.51Z"/><path class="cls-2" d="M78.26,21.54v5.21H69.1v.37c0,1.09.51,1.64,1.53,1.64H71c.76,0,1.17-.42,1.22-1.25h6.1a6.44,6.44,0,0,1-1.94,4.71A6,6,0,0,1,72.08,34h-3a6.32,6.32,0,0,1-4.82-2.08,7.85,7.85,0,0,1-1.94-5.58V21.44a8.16,8.16,0,0,1,2-5.69,6.83,6.83,0,0,1,5.33-2.24H71a6.77,6.77,0,0,1,5.35,2.26A8.48,8.48,0,0,1,78.26,21.54Zm-9.74.61h3.72c0-1.95-.54-2.93-1.61-2.93h-.56C69,19.22,68.52,20.2,68.52,22.15Z"/><path class="cls-2" d="M95.51,21.54v5.21H86.35v.37c0,1.09.51,1.64,1.53,1.64h.34c.76,0,1.17-.42,1.22-1.25h6.1a6.44,6.44,0,0,1-1.94,4.71A6,6,0,0,1,89.33,34h-3a6.32,6.32,0,0,1-4.82-2.08,7.85,7.85,0,0,1-1.94-5.58V21.44a8.16,8.16,0,0,1,2-5.69A6.83,6.83,0,0,1,87,13.51H88.2a6.77,6.77,0,0,1,5.35,2.26A8.48,8.48,0,0,1,95.51,21.54Zm-9.74.61h3.72c0-1.95-.54-2.93-1.61-2.93h-.56C86.29,19.22,85.77,20.2,85.77,22.15Z"/><path class="cls-2" d="M109.41,13.51v6.77a9.3,9.3,0,0,0-1.64.25,8.25,8.25,0,0,0-1.65.6,3.63,3.63,0,0,0-1.35,1.17,3.08,3.08,0,0,0-.51,1.78v9.46H97.39V14h6.53V15.2a4.77,4.77,0,0,1,2.21-1.26A9.17,9.17,0,0,1,109.41,13.51Z"/></g></g></svg>