<svg xmlns="http://www.w3.org/2000/svg" viewBox="0 0 144.91 44.23"><defs><style>.cls-1{fill:#777;}.cls-2{fill:#fff;}</style></defs><title>Asset 14</title><g id="Layer_2" data-name="Layer 2"><g id="Layer_1-2" data-name="Layer 1"><path class="cls-1" d="M143.29,44.23H1.62C.73,44.23,0,43.09,0,41.7V2.53C0,1.14.73,0,1.62,0H143.29c.89,0,1.62,1.14,1.62,2.53V41.7C144.91,43.09,144.18,44.23,143.29,44.23Z"/><path class="cls-2" d="M30.32,24.42V27.2a6.26,6.26,0,0,1-2.05,5,7.38,7.38,0,0,1-5,1.79H19.83a8.41,8.41,0,0,1-5.51-1.79,6.17,6.17,0,0,1-2.18-5.06V16.74a6.09,6.09,0,0,1,2.2-5,8.57,8.57,0,0,1,5.57-1.77H23a7.67,7.67,0,0,1,5.13,1.72,6.13,6.13,0,0,1,2.05,5v2.54H23.93v-.74a2.78,2.78,0,0,0-.48-1.87A1.94,1.94,0,0,0,22,16.05h-.9c-1.34,0-2,.78-2,2.35v6.84a3.36,3.36,0,0,0,.45,2,1.81,1.81,0,0,0,1.56.61h1.11a1.63,1.63,0,0,0,1.43-.57A3.24,3.24,0,0,0,24,25.45v-1Z"/><path class="cls-2" d="M47.54,27.2a6.31,6.31,0,0,1-2,5.07A7.83,7.83,0,0,1,40.28,34H38.85a7.68,7.68,0,0,1-5.2-1.73,6.32,6.32,0,0,1-2-5.06v-7a6.19,6.19,0,0,1,2-5,7.82,7.82,0,0,1,5.2-1.69h1.43a7.92,7.92,0,0,1,5.25,1.69,6.19,6.19,0,0,1,2,5Zm-6.18-1.35V21.54c0-1.4-.47-2.11-1.4-2.11h-.53c-.9,0-1.35.71-1.35,2.11v4.31c0,1.43.45,2.14,1.35,2.14H40C40.89,28,41.36,27.28,41.36,25.85Z"/><path class="cls-2" d="M65.48,33.54H58.82V22.05c0-1.18-.48-1.77-1.45-1.77a1.23,1.23,0,0,0-1.07.54,2.08,2.08,0,0,0-.38,1.25V33.54H49.26V14h6.26v.66A5.68,5.68,0,0,1,57,14a9,9,0,0,1,1.78-.29,6.73,6.73,0,0,1,4.76,1.57,6,6,0,0,1,1.9,4.8Z"/><path class="cls-2" d="M81,27.43V33.7a24.89,24.89,0,0,1-6,.66,5.84,5.84,0,0,1-4.08-1.21c-1-.83-1.44-2.25-1.44-4.24V20.57h-3V14h3v-3.8h7V14h4.49v6.61H76.36v5.76a2,2,0,0,0,.24,1.16.84.84,0,0,0,.71.32A14.53,14.53,0,0,0,81,27.43Z"/><path class="cls-2" d="M97.5,33.54H92V33.3a5.42,5.42,0,0,1-2.69.58H88.09a6.26,6.26,0,0,1-4.32-1.44,4.88,4.88,0,0,1-1.62-3.84V25.24a4.07,4.07,0,0,1,1.62-3.51,7.42,7.42,0,0,1,4.45-1.19,6.1,6.1,0,0,1,2.64.42c0-.86-.71-1.29-2.14-1.29a13.72,13.72,0,0,0-3.17.41,9.93,9.93,0,0,0-2.9,1.15V14.78a14.33,14.33,0,0,1,3.43-1,25.41,25.41,0,0,1,4.36-.45q3.75-.06,5.4,1.46c1.1,1,1.66,2.69,1.66,5Zm-6-5.71V25.72a2,2,0,0,0-1.42-.4h-.77a1.42,1.42,0,0,0-1,.35,1.18,1.18,0,0,0-.35.92v.47a1.27,1.27,0,0,0,.39,1,1.53,1.53,0,0,0,1.09.37h.68A1.48,1.48,0,0,0,91.47,27.83Z"/><path class="cls-2" d="M109.17,25.61h5.92a9.1,9.1,0,0,1-1.56,6.07,5.58,5.58,0,0,1-4.7,2.31h-2.67a7,7,0,0,1-5-1.83,6.64,6.64,0,0,1-2-5.15V20.43a6.57,6.57,0,0,1,2-5.12,7.16,7.16,0,0,1,5-1.8h2.35a6.16,6.16,0,0,1,4.92,2.18,7.71,7.71,0,0,1,1.52,6h-5.89a2.87,2.87,0,0,0-.37-1.73,1.34,1.34,0,0,0-1.13-.46h-.32c-1,0-1.48.75-1.48,2.27V25.8a2.75,2.75,0,0,0,.42,1.65,1.34,1.34,0,0,0,1.14.57h.37C108.69,28,109.17,27.22,109.17,25.61Z"/><path class="cls-2" d="M130.41,27.43V33.7a24.79,24.79,0,0,1-6,.66,5.84,5.84,0,0,1-4.08-1.21c-1-.83-1.44-2.25-1.44-4.24V20.57h-3V14h3v-3.8h6.94V14h4.5v6.61h-4.5v5.76a2,2,0,0,0,.24,1.16.85.85,0,0,0,.72.32A14.44,14.44,0,0,0,130.41,27.43Z"/></g></g></svg>