<svg xmlns="http://www.w3.org/2000/svg" viewBox="0 0 369.21 56.58"><defs><style>.cls-1{fill:#aca2e4;}.cls-2{fill:#fff;}</style></defs><title>Asset 10</title><g id="Layer_2" data-name="Layer 2"><g id="Layer_1-2" data-name="Layer 1"><path class="cls-1" d="M365.07,56.58H4.13C1.86,56.58,0,55.12,0,53.33V3.24C0,1.46,1.86,0,4.13,0H365.07c2.28,0,4.14,1.46,4.14,3.24V53.33C369.21,55.12,367.35,56.58,365.07,56.58Z"/><path class="cls-2" d="M39.45,31.21v3.52a8,8,0,0,1-2.6,6.34,9.37,9.37,0,0,1-6.37,2.26H26.16a10.67,10.67,0,0,1-7-2.26,7.82,7.82,0,0,1-2.76-6.41V21.48a7.76,7.76,0,0,1,2.77-6.4,10.93,10.93,0,0,1,7.06-2.24h3.95A9.79,9.79,0,0,1,36.72,15a7.78,7.78,0,0,1,2.59,6.32v3.21h-8v-.93a3.51,3.51,0,0,0-.6-2.36,2.42,2.42,0,0,0-1.88-.65H27.74q-2.55,0-2.55,3v8.67a4.28,4.28,0,0,0,.57,2.51,2.32,2.32,0,0,0,2,.77h1.4A2.07,2.07,0,0,0,31,34.81a4.11,4.11,0,0,0,.5-2.29V31.21Z"/><path class="cls-2" d="M57,17.39V26a11.41,11.41,0,0,0-2.07.32,9.49,9.49,0,0,0-2.09.77,4.34,4.34,0,0,0-1.71,1.47,3.93,3.93,0,0,0-.65,2.26v12h-8.7V18h8.27v1.57a6.1,6.1,0,0,1,2.81-1.6A11.62,11.62,0,0,1,57,17.39Z"/><path class="cls-2" d="M78.56,27.56v6.6H67v.47c0,1.38.65,2.07,1.94,2.07h.44c1,0,1.47-.52,1.54-1.57H78.6a8.17,8.17,0,0,1-2.46,5.95,7.62,7.62,0,0,1-5.41,2.25H67a8,8,0,0,1-6.11-2.63,9.94,9.94,0,0,1-2.46-7.08V27.43A10.41,10.41,0,0,1,61,20.22a8.68,8.68,0,0,1,6.76-2.83H69.3a8.54,8.54,0,0,1,6.77,2.86A10.75,10.75,0,0,1,78.56,27.56Zm-12.34.77h4.71c0-2.47-.68-3.71-2-3.71h-.7C66.87,24.62,66.22,25.86,66.22,28.33Z"/><path class="cls-2" d="M99.71,42.76h-7v-.3a6.93,6.93,0,0,1-3.41.73H87.8a8,8,0,0,1-5.47-1.82,6.2,6.2,0,0,1-2.06-4.87V32.25a5.17,5.17,0,0,1,2.06-4.45A9.39,9.39,0,0,1,88,26.29a7.63,7.63,0,0,1,3.34.54c0-1.09-.9-1.64-2.71-1.64a16.79,16.79,0,0,0-4,.52,12.74,12.74,0,0,0-3.68,1.45V19a18,18,0,0,1,4.35-1.27,31,31,0,0,1,5.52-.57q4.75-.07,6.84,1.86t2.09,6.37Zm-7.63-7.23V32.85a2.62,2.62,0,0,0-1.8-.5h-1a1.78,1.78,0,0,0-1.29.44A1.55,1.55,0,0,0,87.57,34v.6a1.61,1.61,0,0,0,.5,1.24,1.93,1.93,0,0,0,1.37.47h.87A1.89,1.89,0,0,0,92.08,35.53Z"/><path class="cls-2" d="M119.32,35V43a30.33,30.33,0,0,1-7.63.83,7.37,7.37,0,0,1-5.17-1.52q-1.81-1.59-1.82-5.37V26.33H101V18h3.75V13.14h8.8V18h5.69v8.37H113.5v7.29a2.55,2.55,0,0,0,.3,1.47,1.05,1.05,0,0,0,.9.41A18.7,18.7,0,0,0,119.32,35Z"/><path class="cls-2" d="M131,20.57h-9.14v-7.8H131Zm-.21,22.19H122V22.65h8.73Z"/><path class="cls-2" d="M156.76,18l-7,24.8H140L133,18h8.64l3.28,13.72L148.13,18Z"/><path class="cls-2" d="M176.91,27.56v6.6H165.3v.47c0,1.38.64,2.07,1.94,2.07h.43c1,0,1.47-.52,1.54-1.57h7.73a8.17,8.17,0,0,1-2.46,5.95,7.6,7.6,0,0,1-5.4,2.25h-3.75a8,8,0,0,1-6.11-2.63,9.94,9.94,0,0,1-2.46-7.08V27.43a10.37,10.37,0,0,1,2.55-7.21,8.66,8.66,0,0,1,6.76-2.83h1.57a8.54,8.54,0,0,1,6.77,2.86A10.7,10.7,0,0,1,176.91,27.56Zm-12.35.77h4.72c0-2.47-.68-3.71-2-3.71h-.71C165.22,24.62,164.56,25.86,164.56,28.33Z"/><path class="cls-2" d="M212.14,22.85V33.32a9.1,9.1,0,0,1-2.62,6.94,9.8,9.8,0,0,1-7.05,2.5H189.32V13.41h13.15a9.84,9.84,0,0,1,7.05,2.49A9.14,9.14,0,0,1,212.14,22.85ZM203.91,32V24a3,3,0,0,0-.79-2.41,4,4,0,0,0-2.59-.67H198V35.16h2.58a4.08,4.08,0,0,0,2.61-.65A3.21,3.21,0,0,0,203.91,32Z"/><path class="cls-2" d="M234,27.56v6.6H222.35v.47c0,1.38.64,2.07,1.94,2.07h.43c1,0,1.48-.52,1.54-1.57H234a8.09,8.09,0,0,1-2.46,5.95,7.6,7.6,0,0,1-5.4,2.25h-3.75a8,8,0,0,1-6.11-2.63,10,10,0,0,1-2.45-7.08V27.43a10.36,10.36,0,0,1,2.54-7.21,8.66,8.66,0,0,1,6.76-2.83h1.57a8.56,8.56,0,0,1,6.78,2.86A10.75,10.75,0,0,1,234,27.56Zm-12.35.77h4.72c0-2.47-.68-3.71-2-3.71h-.7C222.27,24.62,221.61,25.86,221.61,28.33Z"/><path class="cls-2" d="M255.61,35.23a8,8,0,0,1-2.23,5.87,8.36,8.36,0,0,1-6.3,2.29h-2.21a10.09,10.09,0,0,1-3.15-.47,9.36,9.36,0,0,1-2.81-1.47,7,7,0,0,1-2.16-2.89,12,12,0,0,1-.88-4.47h8.3c0,1.41.7,2.11,2,2.11a1.55,1.55,0,0,0,1-.29.92.92,0,0,0,.37-.75,1.09,1.09,0,0,0-.2-.72,1.38,1.38,0,0,0-.71-.32l-4.31-1a11.06,11.06,0,0,1-5.12-2.38c-1.12-1-1.67-2.78-1.67-5.22a8,8,0,0,1,2.24-6q2.23-2.21,6.46-2.2h2.34A8,8,0,0,1,252.9,20a9.94,9.94,0,0,1,2.31,6.64H247a3.85,3.85,0,0,0-.3-1.77,1.24,1.24,0,0,0-1.2-.53c-.87,0-1.33.34-1.37,1s.21,1.14.76,1.27l3.79.94c2.56.63,4.35,1.46,5.37,2.51S255.61,32.82,255.61,35.23Z"/><path class="cls-2" d="M267.25,20.57h-9.13v-7.8h9.13Zm-.2,22.19h-8.73V22.65h8.73Z"/><path class="cls-2" d="M277.63,17.63h12.61V37.7a8.34,8.34,0,0,1-1.66,5.53q-1.65,2-5.6,2H271.74V38.44h8.53a1.51,1.51,0,0,0,1.17-.33,2.24,2.24,0,0,0,.27-1.31,3.52,3.52,0,0,1-1.24.23h-3c-2.77,0-4.71-.54-5.84-1.63s-1.69-2.93-1.69-5.49V25q0-3.72,1.84-5.53T277.63,17.63ZM281.91,29V25h-2a2.86,2.86,0,0,0-1.56.35,1.59,1.59,0,0,0-.55,1.45V28a2,2,0,0,0,.5,1.6A2.94,2.94,0,0,0,280,30h1a1,1,0,0,0,.69-.18A1.18,1.18,0,0,0,281.91,29Z"/><path class="cls-2" d="M313.46,42.76H305V28.2c0-1.49-.61-2.24-1.84-2.24a1.55,1.55,0,0,0-1.35.69,2.6,2.6,0,0,0-.49,1.58V42.76h-8.43V18h7.93v.84a7.1,7.1,0,0,1,1.92-.74,11.34,11.34,0,0,1,2.26-.37,8.47,8.47,0,0,1,6,2,7.57,7.57,0,0,1,2.41,6.07Z"/><path class="cls-2" d="M335.78,27.56v6.6H324.17v.47c0,1.38.65,2.07,1.94,2.07h.44c1,0,1.47-.52,1.54-1.57h7.73a8.17,8.17,0,0,1-2.46,5.95A7.64,7.64,0,0,1,328,43.33H324.2a8,8,0,0,1-6.1-2.63,9.94,9.94,0,0,1-2.46-7.08V27.43a10.41,10.41,0,0,1,2.54-7.21,8.68,8.68,0,0,1,6.76-2.83h1.57a8.55,8.55,0,0,1,6.78,2.86A10.75,10.75,0,0,1,335.78,27.56Zm-12.35.77h4.72c0-2.47-.68-3.71-2-3.71h-.7C324.09,24.62,323.43,25.86,323.43,28.33Z"/><path class="cls-2" d="M353.38,17.39V26a11.41,11.41,0,0,0-2.07.32,9.49,9.49,0,0,0-2.09.77,4.28,4.28,0,0,0-1.71,1.47,3.93,3.93,0,0,0-.65,2.26v12h-8.7V18h8.26v1.57a6.21,6.21,0,0,1,2.81-1.6A11.71,11.71,0,0,1,353.38,17.39Z"/></g></g></svg>