<svg xmlns="http://www.w3.org/2000/svg" viewBox="0 0 369.21 56.58"><defs><style>.cls-1{fill:#aca2e4;}.cls-2{fill:#fff;}</style></defs><title>D_c</title><g id="Layer_2" data-name="Layer 2"><g id="Layer_1-2" data-name="Layer 1"><path class="cls-1" d="M365.07,56.58H4.13C1.86,56.58,0,55.12,0,53.33V3.24C0,1.46,1.86,0,4.13,0H365.07c2.28,0,4.14,1.46,4.14,3.24V53.33C369.21,55.12,367.35,56.58,365.07,56.58Z"/><path class="cls-2" d="M22.74,42.47H13V11h9.7v10.2h5.74V11h9.7V42.47h-9.7V31.41H22.74Z"/><path class="cls-2" d="M63.64,15.86V37.09q0,8-7.86,8H42.89V37.84h9.73a1.74,1.74,0,0,0,1.47-.5,2.61,2.61,0,0,0,.36-1.51,3.53,3.53,0,0,1-1.83.5H48.88c-2.73,0-4.68-.66-5.87-2s-1.78-3.41-1.78-6.23V15.86h9.23v10a2.2,2.2,0,0,0,.45,1.65,2,2,0,0,0,1.39.4h1.07c.7,0,1-.42,1-1.26V15.86Z"/><path class="cls-2" d="M88.57,33.46A8.51,8.51,0,0,1,85.88,40a9.87,9.87,0,0,1-6.94,2.48h-.82a4.72,4.72,0,0,1-3-.86v.82H66.52V10.87h9.23v5.82A10,10,0,0,1,86,18.47a9,9,0,0,1,2.59,6.69Zm-8.44-1.83V27c0-1.89-.66-2.84-2-2.84h-.86a1.69,1.69,0,0,0-1.4.63,2.4,2.4,0,0,0-.5,1.53v6A1.88,1.88,0,0,0,76,33.73a1.82,1.82,0,0,0,1.34.56h.94C79.49,34.29,80.13,33.4,80.13,31.63Z"/><path class="cls-2" d="M107.42,15.25v9.2a12.17,12.17,0,0,0-2.22.34,10.94,10.94,0,0,0-2.25.82,4.74,4.74,0,0,0-1.83,1.58,4.19,4.19,0,0,0-.7,2.43V42.47H91.08V15.86H100v1.69a6.62,6.62,0,0,1,3-1.72A12.45,12.45,0,0,1,107.42,15.25Z"/><path class="cls-2" d="M119.81,18.66H110V10.29h9.8Zm-.21,23.81h-9.38V20.89h9.38Z"/><path class="cls-2" d="M122.69,33.46v-8.3a9,9,0,0,1,2.58-6.69,10.06,10.06,0,0,1,10.24-1.78V10.87h9.23v31.6h-8.66v-.82a4.69,4.69,0,0,1-2.94.86h-.83A9.86,9.86,0,0,1,125.38,40,8.48,8.48,0,0,1,122.69,33.46ZM131.13,27v4.6c0,1.77.63,2.66,1.9,2.66H134a1.95,1.95,0,0,0,1.91-2v-6a2.35,2.35,0,0,0-.51-1.53,1.68,1.68,0,0,0-1.4-.63h-.86C131.79,24.19,131.13,25.14,131.13,27Z"/><path class="cls-2" d="M183.06,21.11V32.35a9.79,9.79,0,0,1-2.82,7.45,10.54,10.54,0,0,1-7.56,2.67H158.56V11h14.12a10.54,10.54,0,0,1,7.56,2.67A9.8,9.8,0,0,1,183.06,21.11ZM174.22,31V22.36a3.27,3.27,0,0,0-.84-2.58,4.27,4.27,0,0,0-2.78-.72h-2.77V34.32h2.77a4.35,4.35,0,0,0,2.8-.7A3.42,3.42,0,0,0,174.22,31Z"/><path class="cls-2" d="M206.47,26.17v7.07H194v.51c0,1.48.7,2.22,2.09,2.22h.46q1.55,0,1.65-1.68h8.3a8.76,8.76,0,0,1-2.64,6.39,8.19,8.19,0,0,1-5.8,2.4h-4a8.65,8.65,0,0,1-6.56-2.81,10.68,10.68,0,0,1-2.64-7.6V26a11.12,11.12,0,0,1,2.73-7.74,9.27,9.27,0,0,1,7.26-3h1.69a9.15,9.15,0,0,1,7.27,3.07A11.55,11.55,0,0,1,206.47,26.17ZM193.22,27h5.07q0-4-2.19-4h-.76Q193.23,23,193.22,27Z"/><path class="cls-2" d="M232.05,15.86,224.5,42.47H214l-7.51-26.61h9.27l3.52,14.73,3.48-14.73Z"/><path class="cls-2" d="M253.67,26.17v7.07H241.2v.51c0,1.48.7,2.22,2.09,2.22h.46c1,0,1.58-.56,1.66-1.68h8.29a8.76,8.76,0,0,1-2.64,6.39,8.19,8.19,0,0,1-5.8,2.4h-4a8.65,8.65,0,0,1-6.56-2.81,10.72,10.72,0,0,1-2.63-7.6V26a11.12,11.12,0,0,1,2.72-7.74,9.27,9.27,0,0,1,7.26-3h1.69A9.14,9.14,0,0,1,251,18.32,11.55,11.55,0,0,1,253.67,26.17ZM240.41,27h5.07q0-4-2.19-4h-.76Q240.42,23,240.41,27Z"/><path class="cls-2" d="M266,42.47h-9.45V10.87H266Z"/><path class="cls-2" d="M290.51,33.85c0,3-.91,5.34-2.73,6.9a10.58,10.58,0,0,1-7.14,2.33H278.7a10.45,10.45,0,0,1-7.08-2.35q-2.73-2.35-2.73-6.88V24.37c0-3,.91-5.29,2.73-6.82a10.63,10.63,0,0,1,7.08-2.3h1.94a10.72,10.72,0,0,1,7.14,2.3c1.82,1.53,2.73,3.81,2.73,6.82ZM282.11,32V26.17c0-1.92-.64-2.87-1.9-2.87h-.72c-1.22,0-1.83.95-1.83,2.87V32q0,2.91,1.83,2.91h.72C281.47,34.93,282.11,34,282.11,32Z"/><path class="cls-2" d="M314.86,24.41v5.06a10.07,10.07,0,0,1-2.58,7,9,9,0,0,1-7,2.84h-2.26a10.93,10.93,0,0,1-1.44-.14V45.1h-8.76V15.5H305.7a9.12,9.12,0,0,1,6.72,2.44A8.75,8.75,0,0,1,314.86,24.41ZM306.53,28V26.17a2.14,2.14,0,0,0-.75-1.78,2.72,2.72,0,0,0-1.69-.59h-2.48v6.75c0,.24,0,.4.13.47a.94.94,0,0,0,.55.11h1.51Q306.53,31.13,306.53,28Z"/><path class="cls-2" d="M338.28,26.17v7.07H325.82v.51c0,1.48.69,2.22,2.08,2.22h.47q1.54,0,1.65-1.68h8.3a8.83,8.83,0,0,1-2.64,6.39,8.22,8.22,0,0,1-5.81,2.4h-4a8.63,8.63,0,0,1-6.55-2.81,10.68,10.68,0,0,1-2.64-7.6V26a11.12,11.12,0,0,1,2.73-7.74,9.26,9.26,0,0,1,7.25-3h1.69a9.12,9.12,0,0,1,7.27,3.07A11.5,11.5,0,0,1,338.28,26.17ZM325,27h5.06q0-4-2.19-4h-.75C325.73,23,325,24.34,325,27Z"/><path class="cls-2" d="M357.17,15.25v9.2a12.41,12.41,0,0,0-2.23.34,10.87,10.87,0,0,0-2.24.82,4.6,4.6,0,0,0-1.83,1.58,4.19,4.19,0,0,0-.7,2.43V42.47h-9.34V15.86h8.87v1.69a6.56,6.56,0,0,1,3-1.72A12.42,12.42,0,0,1,357.17,15.25Z"/></g></g></svg>