<svg xmlns="http://www.w3.org/2000/svg" viewBox="0 0 157.42 176.15"><defs><style>.cls-1{fill:#a1a1a1;}.cls-2{fill:#aca2e4;stroke:#aca2e4;stroke-miterlimit:10;stroke-width:2px;}.cls-3{isolation:isolate;}.cls-4{fill:#fff;}</style></defs><title>devel</title><g id="Layer_2" data-name="Layer 2"><g id="Layer_1-2" data-name="Layer 1"><g id="Layer_2-2" data-name="Layer 2"><g id="Layer_1-2-2" data-name="Layer 1-2"><path class="cls-1" d="M153.76,123.41V52.74a13.76,13.76,0,0,0-6.88-11.92L85.59,5.49a13.75,13.75,0,0,0-13.76,0L10.54,40.82A13.76,13.76,0,0,0,3.66,52.74v70.67a13.76,13.76,0,0,0,6.88,11.92l61.29,35.33a13.75,13.75,0,0,0,13.76,0l61.29-35.33A13.76,13.76,0,0,0,153.76,123.41Z"/><path class="cls-2" d="M78.71,175.15A16.52,16.52,0,0,1,70.5,173L9.21,137.62A16.45,16.45,0,0,1,1,123.41V52.74A16.45,16.45,0,0,1,9.21,38.53L70.5,3.19a16.48,16.48,0,0,1,16.42,0l61.29,35.33a16.48,16.48,0,0,1,8.21,14.22v70.67a16.45,16.45,0,0,1-8.21,14.21L86.92,173A16.42,16.42,0,0,1,78.71,175.15Zm0-168.84a11.07,11.07,0,0,0-5.55,1.48L11.87,43.12a11.15,11.15,0,0,0-5.55,9.62v70.67A11.15,11.15,0,0,0,11.87,133l61.28,35.34a11.18,11.18,0,0,0,11.12,0L145.55,133a11.15,11.15,0,0,0,5.55-9.62V52.74a11.15,11.15,0,0,0-5.55-9.62L84.27,7.79A11.13,11.13,0,0,0,78.71,6.31Z"/><g class="cls-3"><path class="cls-4" d="M92,98.08v7.43a20.87,20.87,0,0,1-1.19,7.22l-4,14.32a3.75,3.75,0,0,1-3.67,2.58H74c-1.23,0-2-.23-2.27-.7a3.66,3.66,0,0,1-.1-2.42L74,113.37h-2.7c-2.44,0-4-.44-4.79-1.34s-1.14-2.53-1.14-4.9V98.19q0-3.56,1.46-5c1-1,2.75-1.45,5.34-1.45H85.29c2.73,0,4.52.47,5.39,1.4S92,95.71,92,98.08Zm-.43-42.63v11q0,3.55-1.73,5.22c-1.15,1.11-3,1.67-5.6,1.67H73.86c-2.8,0-4.73-.56-5.77-1.67s-1.56-2.85-1.56-5.22v-11q0-3.56,1.72-5.23t5.61-1.66H84.21q4.2,0,5.77,1.66T91.54,55.45Z"/></g></g></g></g></g></svg>