<svg xmlns="http://www.w3.org/2000/svg" viewBox="0 0 312.32 61"><defs><style>.cls-1{fill:#a1a1a1;}.cls-2{fill:#fff;}</style></defs><title>Asset 23</title><g id="Layer_2" data-name="Layer 2"><g id="Layer_1-2" data-name="Layer 1"><rect class="cls-1" width="312.32" height="61" rx="3.5" ry="3.5"/><path class="cls-2" d="M76.3,24.33V36.39c0,3.42-1,6.08-3,8a11.3,11.3,0,0,1-8.11,2.87H50V13.46H65.16a11.3,11.3,0,0,1,8.11,2.87Q76.3,19.2,76.3,24.33ZM66.82,34.89V25.68a3.5,3.5,0,0,0-.91-2.78,4.61,4.61,0,0,0-3-.77H60V38.51h3a4.67,4.67,0,0,0,3-.75A3.67,3.67,0,0,0,66.82,34.89Z"/><path class="cls-2" d="M103.09,38.2v9.06H79V13.46h23.74v9H89.33v3.39h13.41v9H89.33V38.2Z"/><path class="cls-2" d="M131.07,36.93c0,3.83-.95,6.65-2.83,8.46s-4.7,2.72-8.43,2.72H116c-3.68,0-6.41-1.13-8.21-3.37s-2.71-5.47-2.74-9.66h10.14a5,5,0,0,0,.69,2.8,2.08,2.08,0,0,0,1.77,1h.62a3.84,3.84,0,0,0,1.93-.39,1.67,1.67,0,0,0,.65-1.58,1.85,1.85,0,0,0-.38-1.23,1.64,1.64,0,0,0-.71-.56c-.22-.07-.55-.15-1-.25l-4.93-1.08a18.58,18.58,0,0,1-3.89-1.2,9.35,9.35,0,0,1-2.78-1.9,7.07,7.07,0,0,1-1.79-3.15,17.14,17.14,0,0,1-.56-4.7q0-5.35,2.68-7.8t8.15-2.45h2.85q5.55,0,8.67,3.28t2.9,9.36H120c0-2.39-.74-3.58-2.2-3.58h-.62c-1.41,0-2.12.54-2.12,1.62a3.07,3.07,0,0,0,.12.94,1.15,1.15,0,0,0,.39.58,2.55,2.55,0,0,0,.48.31,3.09,3.09,0,0,0,.59.17l4.17,1.12c1.36.36,2.46.68,3.29,1a16.57,16.57,0,0,1,2.74,1.26,7.42,7.42,0,0,1,2.29,1.85,8.76,8.76,0,0,1,1.37,2.65A11.88,11.88,0,0,1,131.07,36.93Z"/><path class="cls-2" d="M144.67,47.26H134.54V13.46h10.13Z"/><path class="cls-2" d="M176.09,26.56V37.28A10,10,0,0,1,172.91,45a10.74,10.74,0,0,1-7.5,2.91h-5.59a11.41,11.41,0,0,1-7.9-2.8,9.65,9.65,0,0,1-3.12-7.57V22.86A9.11,9.11,0,0,1,152,15.4a12,12,0,0,1,7.84-2.6h5.55a10.25,10.25,0,0,1,7.71,3.36q3.19,3.35,2.7,8.86h-9.33a4.14,4.14,0,0,0-.65-2.58,2.79,2.79,0,0,0-2.28-.81h-2.08q-2.74,0-2.74,3.39V35.54a4.08,4.08,0,0,0,.72,2.8,2.65,2.65,0,0,0,2,.75h3a2.19,2.19,0,0,0,1.89-.79,4.4,4.4,0,0,0,.57-2.53v-.88h-4.66V26.56Z"/><path class="cls-2" d="M205.92,47.26h-8.64L188.92,31.8V47.26h-9.75V13.46h8.9L196.17,30V13.46h9.75Z"/><path class="cls-2" d="M233.48,38.2v9.06H209.39V13.46h23.74v9H219.72v3.39h13.41v9H219.72V38.2Z"/><path class="cls-2" d="M246.43,47.26H236.21V13.46h16.61a9.56,9.56,0,0,1,7.25,2.87c1.82,1.91,2.74,4.66,2.74,8.23a15.89,15.89,0,0,1-1.1,6A12.29,12.29,0,0,1,258.76,35l4.89,12.26H253.17L249.63,37h-3.2Zm3.39-25.17h-4v6.05h4a7.12,7.12,0,0,0,1.21-.09,5.23,5.23,0,0,0,1.12-.37,1.84,1.84,0,0,0,.92-1,4.19,4.19,0,0,0,.33-1.78,3.33,3.33,0,0,0-.27-1.42,3.28,3.28,0,0,0-.54-.87,1.72,1.72,0,0,0-.9-.42,5.3,5.3,0,0,0-.89-.14Z"/></g></g></svg>