<svg xmlns="http://www.w3.org/2000/svg" viewBox="0 0 155.42 174.15"><defs><style>.cls-1{fill:#a1a1a1;}.cls-2{fill:#aca2e4;}.cls-3{fill:#fff;}</style></defs><title>Asset 9</title><g id="Layer_2" data-name="Layer 2"><g id="Layer_1-2" data-name="Layer 1"><g id="Layer_2-2" data-name="Layer 2"><g id="Layer_1-2-2" data-name="Layer 1-2"><path class="cls-1" d="M151.92,122.06v-70a13.62,13.62,0,0,0-6.81-11.79l-60.59-35a13.59,13.59,0,0,0-13.62,0l-60.59,35A13.62,13.62,0,0,0,3.5,52.09v70a13.62,13.62,0,0,0,6.81,11.79l60.59,35a13.68,13.68,0,0,0,13.62,0l60.59-35A13.62,13.62,0,0,0,151.92,122.06Z"/><path class="cls-2" d="M77.71,174.15a17.09,17.09,0,0,1-8.55-2.28l-60.6-35A17.17,17.17,0,0,1,0,122.06v-70A17.18,17.18,0,0,1,8.55,37.27l60.6-35a17.16,17.16,0,0,1,17.12,0l60.59,35a17.17,17.17,0,0,1,8.56,14.82v70a17.18,17.18,0,0,1-8.55,14.82l-60.6,35A17.15,17.15,0,0,1,77.71,174.15ZM77.71,7a10.12,10.12,0,0,0-5.06,1.35l-60.59,35A10.15,10.15,0,0,0,7,52.09v70a10.15,10.15,0,0,0,5.06,8.76l60.59,35a10.18,10.18,0,0,0,10.12,0l60.59-35a10.15,10.15,0,0,0,5.06-8.76v-70a10.15,10.15,0,0,0-5.06-8.76l-60.59-35A10.12,10.12,0,0,0,77.71,7Z"/><path class="cls-3" d="M98.47,81.93,80.4,42.86a3.05,3.05,0,0,0-1.16-1.35l.12,33.08a3.93,3.93,0,1,1-3.36,0l-.12-33.08a3.14,3.14,0,0,0-1.15,1.35L57,82.08a3.1,3.1,0,0,0-.08,2.41l10,25.89a3.13,3.13,0,0,0,2.93,2H85.86a3.13,3.13,0,0,0,2.93-2l9.76-26A3.22,3.22,0,0,0,98.47,81.93Z"/><rect class="cls-3" x="67.54" y="115.95" width="21.2" height="13.16" rx="2.56" ry="2.56"/></g></g></g></g></svg>