<?xml version="1.0" encoding="utf-8"?>
<!-- Generator: Adobe Illustrator 22.1.0, SVG Export Plug-In . SVG Version: 6.00 Build 0)  -->
<svg version="1.1" id="Layer_1" xmlns="http://www.w3.org/2000/svg" xmlns:xlink="http://www.w3.org/1999/xlink" x="0px" y="0px"
	 viewBox="0 0 212 237.6" style="enable-background:new 0 0 212 237.6;" xml:space="preserve">
<style type="text/css">
	.st0{fill:none;stroke:#A1A1A1;stroke-width:9;stroke-miterlimit:10;}
	.st1{fill:#A1A1A1;}
</style>
<title>Asset 27</title>
<g id="Layer_2_1_">
	<g id="Layer_1-2">
		<path class="st0" d="M207.5,166.7V71c0-6.7-3.6-12.8-9.3-16.1L115.3,7c-5.8-3.3-12.9-3.3-18.6,0L13.8,54.8C8,58.2,4.5,64.3,4.5,71
			v95.7c0,6.7,3.6,12.8,9.3,16.1l82.9,47.8c5.8,3.3,12.9,3.3,18.6,0l82.9-47.9C204,179.5,207.5,173.3,207.5,166.7z"/>
		<path class="st1" d="M123.9,132.4v10.1c0,3.3-0.5,6.6-1.6,9.8l-5.4,19.4c-0.7,2.2-2.7,3.6-5,3.5H99.6c-1.7,0-2.7-0.3-3.1-0.9
			c-0.4-1-0.5-2.2-0.1-3.3l3.2-17.8h-3.6c-3.3,0-5.5-0.6-6.5-1.8s-1.5-3.4-1.5-6.6v-12.1c0-3.2,0.7-5.5,2-6.8c1.3-1.3,3.7-2,7.2-2
			h17.8c3.7,0,6.1,0.6,7.3,1.9C123.3,126.9,123.9,129.2,123.9,132.4z M123.3,74.7v14.9c0,3.2-0.8,5.6-2.3,7.1s-4.1,2.3-7.6,2.3h-14
			c-3.8,0-6.4-0.8-7.8-2.3c-1.4-1.5-2.1-3.9-2.1-7.1V74.6c0-3.2,0.8-5.6,2.3-7.1s4.1-2.3,7.6-2.3h14c3.8,0,6.4,0.8,7.8,2.3
			C122.6,69.1,123.3,71.4,123.3,74.7z"/>
	</g>
</g>
</svg>
