<svg xmlns="http://www.w3.org/2000/svg" viewBox="0 0 312.32 61"><defs><style>.cls-1{fill:#a1a1a1;}.cls-2{fill:#fff;}</style></defs><title>Asset 24</title><g id="Layer_2" data-name="Layer 2"><g id="Layer_1-2" data-name="Layer 1"><rect class="cls-1" width="312.32" height="61" rx="3.5" ry="3.5"/><path class="cls-2" d="M57.78,24.33V36.39a10.53,10.53,0,0,1-3,8,11.34,11.34,0,0,1-8.12,2.87H31.49V13.46H46.64a11.34,11.34,0,0,1,8.12,2.87Q57.78,19.2,57.78,24.33ZM48.3,34.89V25.68a3.5,3.5,0,0,0-.91-2.78,4.61,4.61,0,0,0-3-.77h-3V38.51h3a4.67,4.67,0,0,0,3-.75A3.67,3.67,0,0,0,48.3,34.89Z"/><path class="cls-2" d="M84.57,38.2v9.06H60.48V13.46H84.22v9H70.81v3.39H84.22v9H70.81V38.2Z"/><path class="cls-2" d="M116.33,13.46l-9.14,33.8H94.78l-9-33.8H96.28L101,33.08l4.77-19.62Z"/><path class="cls-2" d="M142.34,38.2v9.06H118.25V13.46H142v9H128.58v3.39H142v9H128.58V38.2Z"/><path class="cls-2" d="M168.63,37.12V47.26H145.08V13.46h10.79V37.12Z"/><path class="cls-2" d="M195.69,22.94V37.82a9.28,9.28,0,0,1-3.07,7.47,11.56,11.56,0,0,1-7.8,2.63h-4a11.4,11.4,0,0,1-7.75-2.64,9.35,9.35,0,0,1-3-7.46V22.94q0-4.89,3-7.52a11.49,11.49,0,0,1,7.75-2.62h4a11.6,11.6,0,0,1,7.82,2.62Q195.69,18,195.69,22.94Zm-9.56,12.37V25.45a3.78,3.78,0,0,0-.77-2.57,2.51,2.51,0,0,0-2-.86h-1.12a2.37,2.37,0,0,0-1.9.88,3.79,3.79,0,0,0-.76,2.55v9.86a3.64,3.64,0,0,0,.76,2.51,2.44,2.44,0,0,0,1.9.85h1.12a2.57,2.57,0,0,0,2-.85A3.64,3.64,0,0,0,186.13,35.31Z"/><path class="cls-2" d="M209.21,47.26H198.77V13.46h16.07a9.16,9.16,0,0,1,7.46,3.62,14.45,14.45,0,0,1,2.91,9.33,14.53,14.53,0,0,1-2.91,9.33,9.12,9.12,0,0,1-7.46,3.66h-5.63Zm2.93-24.74H208.4v7.7h3.74a3.9,3.9,0,0,0,2.6-.8,3.86,3.86,0,0,0,.95-3,4,4,0,0,0-.95-3.05A3.76,3.76,0,0,0,212.14,22.52Z"/><path class="cls-2" d="M252,38.2v9.06H227.91V13.46h23.74v9H238.24v3.39h13.41v9H238.24V38.2Z"/><path class="cls-2" d="M265,47.26H254.73V13.46h16.61a9.56,9.56,0,0,1,7.25,2.87c1.82,1.91,2.74,4.66,2.74,8.23a15.89,15.89,0,0,1-1.1,6,12.29,12.29,0,0,1-3,4.45l4.89,12.26H271.69L268.15,37H265Zm3.39-25.17h-4v6.05h4a7.12,7.12,0,0,0,1.21-.09,5.23,5.23,0,0,0,1.12-.37,1.84,1.84,0,0,0,.92-1,4.19,4.19,0,0,0,.33-1.78,3.33,3.33,0,0,0-.27-1.42,3.28,3.28,0,0,0-.54-.87,1.72,1.72,0,0,0-.9-.42,5.3,5.3,0,0,0-.89-.14Z"/></g></g></svg>