<svg xmlns="http://www.w3.org/2000/svg" viewBox="0 0 203 228.64"><defs><style>.cls-1{fill:#a1a1a1;}.cls-2{fill:#fff;}</style></defs><title>Asset 21</title><g id="Layer_2" data-name="Layer 2"><g id="Layer_1-2" data-name="Layer 1"><path class="cls-1" d="M203,162.17V66.47a18.64,18.64,0,0,0-9.31-16.13L110.81,2.5a18.6,18.6,0,0,0-18.62,0L9.31,50.34A18.64,18.64,0,0,0,0,66.47v95.7A18.64,18.64,0,0,0,9.31,178.3l82.88,47.85a18.65,18.65,0,0,0,18.62,0l82.88-47.85A18.64,18.64,0,0,0,203,162.17Z"/><path class="cls-2" d="M119.43,127.88v10.06a28.2,28.2,0,0,1-1.6,9.77l-5.4,19.39a5.06,5.06,0,0,1-5,3.5H95.09c-1.66,0-2.68-.32-3.07-.95a5,5,0,0,1-.14-3.28l3.21-17.79H91.44c-3.3,0-5.47-.6-6.49-1.82s-1.53-3.43-1.53-6.63V128q0-4.82,2-6.78c1.31-1.32,3.72-2,7.22-2h17.78q5.55,0,7.29,1.89C118.85,122.44,119.43,124.67,119.43,127.88Zm-.58-57.73V85c0,3.21-.78,5.56-2.33,7.07s-4.09,2.26-7.58,2.26h-14q-5.68,0-7.8-2.26C85.73,90.58,85,88.23,85,85V70.15c0-3.21.77-5.57,2.33-7.07s4.08-2.26,7.58-2.26h14q5.69,0,7.8,2.26C118.14,64.58,118.85,66.94,118.85,70.15Z"/></g></g></svg>