<svg xmlns="http://www.w3.org/2000/svg" viewBox="0 0 55.04 61.68"><defs><style>.cls-1{fill:#a1a1a1;}.cls-2{fill:#aca2e4;}.cls-3{fill:#fff;}</style></defs><title>Asset 16</title><g id="Layer_2" data-name="Layer 2"><g id="Layer_1-2" data-name="Layer 1"><path class="cls-1" d="M53.82,43.24V18.44a4.83,4.83,0,0,0-2.41-4.18L29.93,1.86a4.82,4.82,0,0,0-4.82,0L3.63,14.26a4.83,4.83,0,0,0-2.41,4.18v24.8a4.83,4.83,0,0,0,2.41,4.18l21.48,12.4a4.82,4.82,0,0,0,4.82,0l21.48-12.4A4.83,4.83,0,0,0,53.82,43.24Z"/><path class="cls-2" d="M27.52,61.68a6.12,6.12,0,0,1-3-.8L3,48.48a6.08,6.08,0,0,1-3-5.24V18.44a6.06,6.06,0,0,1,3-5.23L24.5.81a6,6,0,0,1,6,0L52,13.21a6.06,6.06,0,0,1,3,5.23v24.8a6.08,6.08,0,0,1-3,5.24L30.54,60.88A6.09,6.09,0,0,1,27.52,61.68Zm0-59.24a3.62,3.62,0,0,0-1.8.48L4.24,15.32a3.62,3.62,0,0,0-1.8,3.12v24.8a3.62,3.62,0,0,0,1.8,3.12l21.48,12.4a3.63,3.63,0,0,0,3.61,0L50.8,46.36a3.62,3.62,0,0,0,1.8-3.12V18.44a3.62,3.62,0,0,0-1.8-3.12L29.32,2.92A3.6,3.6,0,0,0,27.52,2.44Z"/><path class="cls-3" d="M27.56,32.49h0a1.07,1.07,0,0,0,.61-.18l.05,0,0,0,.56-.47,13.4-11.06a.13.13,0,0,0-.12-.06H12.93a.14.14,0,0,0-.09,0l14,11.56A1.09,1.09,0,0,0,27.56,32.49ZM12.78,22.23v16.4l10-8.11Zm19.45,8.34,10,8.07V22.29ZM29,33.2a2.41,2.41,0,0,1-2.95,0l-2.3-1.9-11,8.89v0a.16.16,0,0,0,.16.16H42.11a.17.17,0,0,0,.16-.16v0l-11-8.84Z"/></g></g></svg>