<svg xmlns="http://www.w3.org/2000/svg" viewBox="0 0 55.04 61.68"><defs><style>.cls-1{fill:#a1a1a1;}.cls-2{fill:#aca2e4;}.cls-3{fill:#fff;}</style></defs><title>Asset 17</title><g id="Layer_2" data-name="Layer 2"><g id="Layer_1-2" data-name="Layer 1"><path class="cls-1" d="M53.82,43.24V18.44a4.83,4.83,0,0,0-2.41-4.18L29.93,1.86a4.82,4.82,0,0,0-4.82,0L3.63,14.26a4.83,4.83,0,0,0-2.41,4.18v24.8a4.83,4.83,0,0,0,2.41,4.18l21.48,12.4a4.82,4.82,0,0,0,4.82,0l21.48-12.4A4.83,4.83,0,0,0,53.82,43.24Z"/><path class="cls-2" d="M27.52,61.68a6.12,6.12,0,0,1-3-.8L3,48.48a6.08,6.08,0,0,1-3-5.24V18.44a6.06,6.06,0,0,1,3-5.23L24.5.81a6,6,0,0,1,6,0L52,13.21a6.06,6.06,0,0,1,3,5.23v24.8a6.08,6.08,0,0,1-3,5.24L30.54,60.88A6.09,6.09,0,0,1,27.52,61.68Zm0-59.24a3.62,3.62,0,0,0-1.8.48L4.24,15.32a3.62,3.62,0,0,0-1.8,3.12v24.8a3.62,3.62,0,0,0,1.8,3.12l21.48,12.4a3.63,3.63,0,0,0,3.61,0L50.8,46.36a3.62,3.62,0,0,0,1.8-3.12V18.44a3.62,3.62,0,0,0-1.8-3.12L29.32,2.92A3.6,3.6,0,0,0,27.52,2.44Z"/><path class="cls-3" d="M35.43,16.13H29.91c-.5.1-1,.17-1.49.3A6.49,6.49,0,0,0,24,20.22a10.82,10.82,0,0,0-.81,3.5c-.05.67-.07,1.34-.1,2H18.94c-.64,0-.89.25-.89.88v3.58c0,.69.24.93.93.93h4.49v14c0,.12,0,.24,0,.35a.7.7,0,0,0,.76.7h5.31a.69.69,0,0,0,.74-.67,2.17,2.17,0,0,0,0-.36v-14h4.54c.66,0,.9-.24.91-.9V26.65c0-.65-.25-.89-.91-.89H30.33a19.5,19.5,0,0,1,0-2,2.42,2.42,0,0,1,.4-1.05,2.32,2.32,0,0,1,2-1c.81,0,1.63,0,2.44,0,.6,0,.86-.27.86-.86V17C36,16.49,35.91,16.32,35.43,16.13Z"/></g></g></svg>