<svg xmlns="http://www.w3.org/2000/svg" viewBox="0 0 55.04 61.68"><defs><style>.cls-1{fill:#a1a1a1;}.cls-2{fill:#aca2e4;}.cls-3{fill:#fff;}</style></defs><title>github</title><g id="Layer_2" data-name="Layer 2"><g id="Layer_1-2" data-name="Layer 1"><path class="cls-1" d="M53.82,43.24V18.44a4.83,4.83,0,0,0-2.41-4.18L29.93,1.86a4.82,4.82,0,0,0-4.82,0L3.63,14.26a4.83,4.83,0,0,0-2.41,4.18v24.8a4.83,4.83,0,0,0,2.41,4.18l21.48,12.4a4.82,4.82,0,0,0,4.82,0l21.48-12.4A4.83,4.83,0,0,0,53.82,43.24Z"/><path class="cls-2" d="M27.52,61.68a6.12,6.12,0,0,1-3-.8L3,48.48a6.08,6.08,0,0,1-3-5.24V18.44a6.06,6.06,0,0,1,3-5.23L24.5.81a6,6,0,0,1,6,0L52,13.21a6.06,6.06,0,0,1,3,5.23v24.8a6.08,6.08,0,0,1-3,5.24L30.54,60.88A6.09,6.09,0,0,1,27.52,61.68Zm0-59.24a3.62,3.62,0,0,0-1.8.48L4.24,15.32a3.62,3.62,0,0,0-1.8,3.12v24.8a3.62,3.62,0,0,0,1.8,3.12l21.48,12.4a3.63,3.63,0,0,0,3.61,0L50.8,46.36a3.62,3.62,0,0,0,1.8-3.12V18.44a3.62,3.62,0,0,0-1.8-3.12L29.32,2.92A3.6,3.6,0,0,0,27.52,2.44Z"/><path class="cls-3" d="M11.85,30.84a15.09,15.09,0,0,1,4.59-11.08,15.09,15.09,0,0,1,11.08-4.59A15.09,15.09,0,0,1,38.6,19.76a15.06,15.06,0,0,1,4.6,11.08,15.06,15.06,0,0,1-4.6,11.08,15.06,15.06,0,0,1-11.08,4.6,15.06,15.06,0,0,1-11.08-4.6A15.09,15.09,0,0,1,11.85,30.84Zm1.71,0a13.47,13.47,0,0,0,4.1,9.86,13.47,13.47,0,0,0,9.86,4.1,13.45,13.45,0,0,0,9.86-4.1,13.43,13.43,0,0,0,4.1-9.86A13.43,13.43,0,0,0,37.38,21a13.45,13.45,0,0,0-9.86-4.1A13.47,13.47,0,0,0,17.66,21,13.47,13.47,0,0,0,13.56,30.84ZM18,34.21A.16.16,0,0,1,18,34a.67.67,0,0,1,.61-.18,1.05,1.05,0,0,1,.43.12,2.71,2.71,0,0,1,.95.83,6.4,6.4,0,0,0,.83.89,2.29,2.29,0,0,0,3,.18,1.77,1.77,0,0,1,.39-.73,1.86,1.86,0,0,1,.52-.43c.17-.08.45-.21.86-.37a11.52,11.52,0,0,1-3.27-.7,5.58,5.58,0,0,1-2-1.32,5.11,5.11,0,0,1-1.2-2.88,7.34,7.34,0,0,1,.28-3.24,5.23,5.23,0,0,1,1-1.66A5.45,5.45,0,0,1,20.6,21a6.31,6.31,0,0,1,3.55,1.35,13.43,13.43,0,0,1,6.37-.06,11.75,11.75,0,0,1,1.32-.77A5.47,5.47,0,0,1,34.07,21a6.25,6.25,0,0,1,.34,1.59,5.39,5.39,0,0,1-.09,1.72,5.62,5.62,0,0,1,1.47,3.92,6.91,6.91,0,0,1-.68,3.24,5.16,5.16,0,0,1-2.38,2.15,8.69,8.69,0,0,1-3.07.67,4,4,0,0,1,1.26.89,2.61,2.61,0,0,1,.52,1.44v1.93l.06,1.86a2,2,0,0,0,.43.52,1.87,1.87,0,0,0,.43.31.21.21,0,0,1,.12.28c0,.12-.2.18-.49.18a2,2,0,0,1-1.65-.74,1.39,1.39,0,0,1-.19-.73V37.27a.88.88,0,0,0-.24-.7,1.12,1.12,0,0,0-.49-.28v3.86a2.49,2.49,0,0,0,.24,1.35,1.31,1.31,0,0,1,.31.61s0,.07-.09.09a1.2,1.2,0,0,1-.52-.09,1.5,1.5,0,0,1-1.1-.83A3.1,3.1,0,0,1,28,39.9V36.11h-.8V39.9a3.43,3.43,0,0,1-.3,1.41,1.73,1.73,0,0,1-1.59.92c-.13,0-.19-.08-.19-.12a5,5,0,0,0,.37-.61,3.37,3.37,0,0,0,.15-.49,3.72,3.72,0,0,0,.09-.86V36.29a.91.91,0,0,0-.67,1v2.94a1.39,1.39,0,0,1-.18.73,2,2,0,0,1-1.66.74c-.28,0-.44-.06-.49-.18a.18.18,0,0,1,0-.22l.28-.21a3,3,0,0,0,.25-.19,1.07,1.07,0,0,0,.36-.49,2.16,2.16,0,0,0,.09-1.28,6.33,6.33,0,0,1,0-1.35,3.53,3.53,0,0,1-3.24-.55,6.12,6.12,0,0,1-1-1.41A6.31,6.31,0,0,0,18,34.21Z"/></g></g></svg>