<svg xmlns="http://www.w3.org/2000/svg" viewBox="0 0 539.62 234.92"><defs><style>.cls-1{fill:#a1a1a1;}.cls-2{fill:#fe7c00;}.cls-3{fill:#261300;}.cls-4{fill:#fe7b00;}.cls-5{fill:#bb84f2;}.cls-6{fill:#252653;}.cls-7{fill:#98c3cc;}.cls-8{fill:#86bbf5;}.cls-9{fill:#e3469b;}.cls-10{fill:#d473f6;}.cls-11{fill:#fff;}.cls-12{fill:#00969b;}.cls-13{fill:#fdfdfd;}.cls-14{fill:#383838;}.cls-15{fill:#020202;}</style></defs><title>h_skilllist</title><g id="Layer_2" data-name="Layer 2"><g id="Layer_1-2" data-name="Layer 1"><rect class="cls-1" width="539.62" height="234.92" rx="3.98" ry="3.98"/><path class="cls-2" d="M56,100.56q-13.35,0-26.68,0c-.6,0-.72-.16-.72-.73q0-26.48,0-52.93c0-.58.13-.73.73-.73q26.67,0,53.34,0c.57,0,.7.16.7.71q0,26.49,0,53c0,.56-.14.7-.7.7Q69.37,100.54,56,100.56Z"/><path class="cls-3" d="M56,50.73c7.37,0,14.74,0,22.1,0,.56,0,.66.15.66.67q0,22,0,44c0,.51-.09.68-.65.68Q56,96,33.88,96c-.55,0-.66-.16-.66-.68q0-22,0-44c0-.6.2-.68.72-.68C41.31,50.74,48.67,50.73,56,50.73Z"/><path class="cls-2" d="M52.18,79.75c-1,0-2.07,0-3.1,0-.39,0-.53.15-.61.49-.41,1.68-.85,3.34-1.23,5-.14.59-.38.85-1,.82-1.16,0-2.32,0-3.47,0-.81,0-.81,0-.59-.74l4.5-15.39c.63-2.14,1.25-4.28,1.89-6.41a6.11,6.11,0,0,0,.27-2.4c0-.35.11-.48.44-.48,2,0,3.9,0,5.85,0,.46,0,.43.35.51.61Q57.84,68.65,60,76q1.41,4.68,2.81,9.37c.2.67.19.67-.51.67-1.3,0-2.6,0-3.89,0a.83.83,0,0,1-1-.7c-.48-1.69-1-3.37-1.5-5.06a.65.65,0,0,0-.76-.57C54.21,79.78,53.2,79.75,52.18,79.75Z"/><path class="cls-4" d="M65.14,77c0-2.8,0-5.6,0-8.4,0-.44.1-.61.57-.6,1.19,0,2.39,0,3.59,0,.46,0,.59.16.59.6,0,5.66,0,11.32,0,17,0,.42-.13.59-.56.58-1.22,0-2.43,0-3.65,0-.43,0-.55-.17-.54-.58C65.15,82.69,65.14,79.83,65.14,77Z"/><path class="cls-4" d="M65,63.16a2.4,2.4,0,0,1,2.48-2.37A2.43,2.43,0,0,1,70,63.18a2.46,2.46,0,0,1-2.49,2.39A2.43,2.43,0,0,1,65,63.16Z"/><path class="cls-3" d="M52.26,65.2l2.62,10H49.69l2.47-10Z"/><path class="cls-5" d="M214.07,46.19h26.55c.78,0,.78,0,.78.8q0,26.4,0,52.8c0,.61-.14.77-.76.77q-26.65,0-53.29,0c-.64,0-.76-.18-.76-.78q0-26.4,0-52.8c0-.79,0-.79.78-.79Z"/><path class="cls-6" d="M214,50.72c7.35,0,14.69,0,22,0,.52,0,.72.08.72.68q0,22,0,44c0,.52-.1.68-.66.68Q214,96,191.88,96c-.56,0-.66-.16-.66-.68q0-22,0-44c0-.6.2-.68.72-.68C199.3,50.73,206.67,50.72,214,50.72Z"/><path class="cls-5" d="M205,60.47c.79,0,1.58,0,2.37,0s.94.16,1.13.81q3.32,11.19,6.68,22.37c.19.62.37,1.24.57,1.86.1.3.06.44-.31.43-1.52,0-3,0-4.57,0-.37,0-.42-.22-.5-.48-.53-1.78-1.09-3.56-1.61-5.35a.58.58,0,0,0-.67-.51q-3.1,0-6.21,0c-.38,0-.52.11-.61.48-.42,1.78-.89,3.54-1.31,5.31-.1.4-.24.56-.68.55q-2-.06-4,0c-.48,0-.58-.09-.44-.56,1.36-4.57,2.69-9.14,4-13.71.83-2.84,1.67-5.68,2.5-8.51a5.5,5.5,0,0,0,.24-2.17c0-.39.08-.54.5-.53.95,0,1.9,0,2.86,0Z"/><path class="cls-5" d="M227.05,77.55c-1.48,0-3,0-4.45,0-.39,0-.47.13-.45.5A4,4,0,0,0,226,82a13.11,13.11,0,0,0,4.86-.64c.49-.15.67-.07.65.47,0,.85,0,1.7,0,2.55a.6.6,0,0,1-.39.66,10.87,10.87,0,0,1-10.06,0,5.28,5.28,0,0,1-2.48-2.52,13.61,13.61,0,0,1-.11-11.77,7,7,0,0,1,7.61-4.17,7.18,7.18,0,0,1,6.4,6.14,8.76,8.76,0,0,1-.14,4,1,1,0,0,1-1.13.82c-1.4-.06-2.8,0-4.2,0Z"/><path class="cls-6" d="M205.1,65c.78,2.94,1.55,5.87,2.32,8.81.32,1.2.31,1.2-.95,1.2h-3.53c-.27,0-.42,0-.33-.37q1.2-4.83,2.39-9.66Z"/><path class="cls-6" d="M225,74.26c-.85,0-1.7,0-2.55,0-.32,0-.45-.1-.4-.42a5.89,5.89,0,0,1,.58-2.22,2.86,2.86,0,0,1,2.83-1.52,2.54,2.54,0,0,1,2.28,2,7.28,7.28,0,0,1,.27,1.67c0,.36-.12.46-.45.45C226.74,74.25,225.89,74.26,225,74.26Z"/><path class="cls-7" d="M214,191.32q-13.34,0-26.67,0c-.58,0-.75-.13-.75-.73q0-26.46,0-52.92c0-.6.18-.72.75-.72h53.28c.6,0,.78.12.78.76q0,26.43,0,52.85c0,.65-.19.76-.78.76Q227.33,191.3,214,191.32Z"/><path class="cls-6" d="M214,186.79c-7.35,0-14.7,0-22.05,0-.56,0-.69-.15-.69-.7q0-22,0-43.91c0-.55.13-.7.69-.7h44.22c.55,0,.66.14.66.67q0,22,0,44c0,.54-.12.68-.66.67C228.74,186.78,221.35,186.79,214,186.79Z"/><path class="cls-7" d="M199.87,164.13c0-4,0-8,0-12,0-.55.15-.7.68-.69,1.18,0,2.35-.06,3.53-.09.89,0,.9,0,.9.92v15c0,1.44,0,2.89,0,4.33,0,.92-.11.82.79.82H214c.86,0,.92.09.75.91s-.39,1.74-.51,2.63c-.09.68-.42.85-1.06.84-2.47,0-4.95,0-7.42,0-1.71,0-3.41,0-5.11,0-.56,0-.74-.17-.74-.73,0-4,0-8,0-12.05Z"/><path class="cls-7" d="M222.3,159.91c.54-.47.93-1,1.45-1.44a5.32,5.32,0,0,1,3.89-1c.35,0,.49.24.49.57,0,1.22,0,2.44,0,3.65,0,.51-.35.42-.63.41a6.47,6.47,0,0,0-4.73,1.73.92.92,0,0,0-.36.77c0,3.91,0,7.83,0,11.74,0,.49-.09.67-.62.65-1.26,0-2.52,0-3.77,0-.48,0-.61-.12-.61-.6q0-7.28,0-14.55c0-1.22-.09-2.43-.16-3.65,0-.47.11-.65.61-.62,1,.05,1.95,0,2.93,0,.81,0,1,.16,1.25.94C222.16,158.93,222.21,159.4,222.3,159.91Z"/><path class="cls-8" d="M135.08,100.55q-13.34,0-26.67,0c-.58,0-.74-.15-.74-.74q0-26.46,0-52.92c0-.6.18-.72.75-.72q26.64,0,53.28,0c.61,0,.78.14.78.76q0,26.43,0,52.86c0,.65-.2.76-.79.76Q148.39,100.54,135.08,100.55Z"/><path class="cls-6" d="M135,96q-11.05,0-22.1,0c-.56,0-.66-.16-.66-.68q0-22,0-44c0-.52.1-.68.66-.68q22.13,0,44.26,0c.56,0,.66.16.66.68q0,22,0,44c0,.59-.2.67-.72.67Z"/><path class="cls-8" d="M120.09,73.44c0-4,0-7.92,0-11.87,0-.47.12-.6.59-.65a39.67,39.67,0,0,1,8.08-.11c4.38.49,6.7,2.87,7.17,7.62a9.86,9.86,0,0,1-.5,4.5,7.51,7.51,0,0,1-5.77,4.7,14.69,14.69,0,0,1-4.23.35c-.47,0-.58.11-.58.56,0,2.29,0,4.59,0,6.88,0,.53-.16.64-.65.62-1.17,0-2.35,0-3.53,0-.5,0-.6-.15-.6-.61C120.1,81.43,120.09,77.43,120.09,73.44Z"/><path class="cls-8" d="M137.26,82.54V81.08c0-.75.1-.82.74-.45A9.86,9.86,0,0,0,141.82,82a4.67,4.67,0,0,0,2.56-.3c1.15-.52,1.27-1.49.28-2.27a8.73,8.73,0,0,0-2.12-1.05,10.62,10.62,0,0,1-3.65-2.25,5.38,5.38,0,0,1,2.5-9.19,9.78,9.78,0,0,1,7,.73,1,1,0,0,1,.63,1c0,.83,0,1.66,0,2.49s-.33.91-1,.54a12.3,12.3,0,0,0-3.69-1.52,2.23,2.23,0,0,0-1.66.13,1.68,1.68,0,0,0-.29,2.71,5.09,5.09,0,0,0,1.79,1.13,23.18,23.18,0,0,1,3.14,1.6,5.4,5.4,0,0,1-.75,9.71,10.18,10.18,0,0,1-7.76-.11c-1.62-.64-1.61-.65-1.61-2.35Z"/><path class="cls-6" d="M124.85,69.29c0-1.42,0-2.84,0-4.26,0-.47.15-.66.63-.66a14,14,0,0,1,2.42.13,3.73,3.73,0,0,1,3.33,3,7.93,7.93,0,0,1,.15,3.14c-.3,1.89-1.63,3-3.83,3.32a15.9,15.9,0,0,1-2.19.15c-.39,0-.52-.1-.51-.51C124.86,72.17,124.85,70.73,124.85,69.29Z"/><path class="cls-9" d="M56,190.38q-13.28,0-26.55,0c-.56,0-.76-.09-.76-.71q0-26.46,0-52.92c0-.53.1-.71.68-.71q26.63,0,53.23,0c.6,0,.72.17.72.74q0,26.43,0,52.86c0,.57-.12.75-.72.74Q69.3,190.36,56,190.38Z"/><path class="cls-6" d="M56,185.84c-7.32,0-14.65,0-22,0-.59,0-.74-.16-.74-.74q0-21.9,0-43.78c0-.59.17-.74.75-.74H78c.63,0,.77.16.77.77q0,21.87,0,43.72c0,.63-.16.78-.78.77C70.66,185.83,63.31,185.84,56,185.84Z"/><path class="cls-9" d="M67.61,162v10a7.44,7.44,0,0,0,.09,1.7.81.81,0,0,1-.47,1A12.29,12.29,0,0,1,59.8,176a10.31,10.31,0,0,1-4.49-1.59,8.17,8.17,0,0,1-3.52-5.15,13,13,0,0,1,.35-7.08,9.28,9.28,0,0,1,9-6.12c1.06.06,1.06,0,1.07-1,0-1.32,0-2.64,0-4,0-.49.17-.66.68-.64,1.35.06,2.72.07,4.07.05.5,0,.61.16.61.63C67.6,154.7,67.61,158.34,67.61,162Z"/><path class="cls-9" d="M44.28,163.1c0-3.92,0-7.84,0-11.75,0-.59.11-.83.76-.8,1.2.06,2.4,0,3.59,0,.41,0,.58.11.58.55q0,12,0,24c0,.38-.11.54-.52.54-1.27,0-2.55,0-3.83,0-.56,0-.56-.28-.56-.68Z"/><path class="cls-6" d="M62.46,166c0,1.77,0,3.53,0,5.3,0,.41-.11.55-.54.56a5.07,5.07,0,0,1-5.3-4.66,8.66,8.66,0,0,1,.55-4.53,4,4,0,0,1,3.33-2.49c.44-.06.89-.06,1.34-.1s.63.13.62.62C62.44,162.47,62.46,164.24,62.46,166Z"/><path class="cls-10" d="M135.06,137q13.33,0,26.67,0c.58,0,.74.14.74.73q0,26.46,0,52.92c0,.6-.18.73-.75.73q-26.64,0-53.28,0c-.61,0-.78-.14-.78-.77q0-26.43,0-52.86c0-.64.19-.75.79-.75Q121.76,137,135.06,137Z"/><path class="cls-6" d="M135,186.79H113c-.52,0-.71-.08-.71-.67q0-22,0-44c0-.52.11-.67.66-.67q22.14,0,44.27,0c.56,0,.65.17.65.68q0,22,0,44c0,.53-.11.68-.66.68Q146.12,186.78,135,186.79Z"/><path class="cls-10" d="M120.3,164.14q0-6,0-11.94c0-.47.11-.61.59-.62,1.75,0,3.49-.12,5.24-.19a12.79,12.79,0,0,1,6.34,1.1,7.43,7.43,0,0,1,4.17,6.18,8.43,8.43,0,0,1-7.77,10,25.82,25.82,0,0,1-3,.11c-.43,0-.55.12-.54.54,0,2.27,0,4.55,0,6.82,0,.47-.14.58-.59.57-1.27,0-2.55,0-3.83,0-.51,0-.59-.17-.59-.63Q120.31,170.12,120.3,164.14Z"/><path class="cls-10" d="M144,160a13.28,13.28,0,0,1,1.72-1.72,5.58,5.58,0,0,1,3.58-.93.57.57,0,0,1,.62.66c0,1.2,0,2.4,0,3.59,0,.46-.29.42-.57.41a6.53,6.53,0,0,0-4.75,1.68,1,1,0,0,0-.4.88c0,3.89,0,7.79,0,11.69,0,.56-.17.67-.68.65-1.26,0-2.52-.05-3.77,0-.48,0-.57-.16-.57-.6,0-4.24,0-8.48,0-12.72,0-1.72-.08-3.44-.2-5.16-.07-.94,0-1,.88-1s1.83.07,2.74,0a1.07,1.07,0,0,1,1.16.85A5.8,5.8,0,0,1,144,160Z"/><path class="cls-6" d="M125.29,160.12c0-1.38,0-2.76,0-4.14,0-.43.15-.57.55-.56a16.17,16.17,0,0,1,2.6.19,3.55,3.55,0,0,1,3.14,3.41,8.39,8.39,0,0,1-.08,2.6,3.44,3.44,0,0,1-2.66,2.85,12.67,12.67,0,0,1-3.19.33c-.39,0-.35-.24-.35-.48v-4.2Z"/><rect class="cls-11" x="262.9" y="45.77" width="54.7" height="55.21"/><path class="cls-12" d="M310.36,89.68c0-.07-.07-.05-.11-.05a2.67,2.67,0,0,1-1.77-.86,3.31,3.31,0,0,1-.71-1.38,7,7,0,0,1-.18-2.33,4.65,4.65,0,0,1,.4-1.63,2.93,2.93,0,0,1,2.72-1.8,3.34,3.34,0,0,1,1.65.32,2.73,2.73,0,0,1,1.34,1.62,4.86,4.86,0,0,1,.24,1c0,.05,0,.05.05.08v1.86a.12.12,0,0,0-.05.1,5,5,0,0,1-.23.92,2.94,2.94,0,0,1-2.57,2.1s-.08,0-.07.05Zm1.92-4.37a4.06,4.06,0,0,0-.26-1.42,1.19,1.19,0,0,0-1.12-.81,1.27,1.27,0,0,0-1.36.83c0,.11-.08.22-.11.33a6.51,6.51,0,0,0-.11,2.2,3.67,3.67,0,0,0,.2.87,1.34,1.34,0,0,0,2.48.14,3.58,3.58,0,0,0,.19-.58A6.75,6.75,0,0,0,312.28,85.31Z"/><path class="cls-12" d="M302.67,84.36v5c0,.11,0,.15-.14.14h-1.24c-.09,0-.12,0-.12-.11q0-3.78,0-7.54c0-.1,0-.12.12-.12.57,0,1.14,0,1.72,0a.14.14,0,0,1,.15.1c.75,1.65,1.54,3.27,2.27,4.92,0,0,0,0,.05.07s0-.09,0-.13v-4.8c0-.16,0-.16.15-.16.41,0,.81,0,1.22,0,.09,0,.13,0,.13.12,0,2.51,0,5,0,7.54,0,.09,0,.11-.12.11h-1.71a.14.14,0,0,1-.15-.1c-.75-1.66-1.53-3.31-2.27-5C302.72,84.42,302.72,84.39,302.67,84.36Z"/><path class="cls-12" d="M314,68.05v.67s0,0,0,.13a11,11,0,0,1-.43,2.62,11.29,11.29,0,0,1-4.1,5.9,11.52,11.52,0,0,1-5,2.16,14.71,14.71,0,0,1-2,.17,12.31,12.31,0,0,1-3.63-.36,11.21,11.21,0,0,1-4.18-2.13,17.51,17.51,0,0,1-3-3.23c-.45-.61-.88-1.24-1.3-1.88,0-.08-.07-.09-.12,0l-.3.46a21.93,21.93,0,0,1-3,3.76A11.9,11.9,0,0,1,282.68,79a11.37,11.37,0,0,1-3,.67c-.62,0-1.23,0-1.85,0a11.87,11.87,0,0,1-2.72-.36,11.49,11.49,0,0,1-5.88-3.56,11.12,11.12,0,0,1-2.67-5.57s0-.08,0-.08v-3.5s0,0,.05-.07a9.61,9.61,0,0,1,.36-1.52A11.34,11.34,0,0,1,273.5,58a11,11,0,0,1,3.48-.85s.08,0,.08,0h2c0,.06.07,0,.1,0,.42,0,.83.08,1.25.15a12.39,12.39,0,0,1,5.56,2.48,18.15,18.15,0,0,1,3.41,3.59l.77,1.09c.06.09.09.08.14,0l.22-.32a22.28,22.28,0,0,1,2.94-3.49,13.29,13.29,0,0,1,3.69-2.48,12.59,12.59,0,0,1,4.13-1s.09,0,.1,0h2c0,.06.05,0,.08,0l.26,0a11.55,11.55,0,0,1,9.47,7,10.75,10.75,0,0,1,.83,3.75S313.92,68,314,68.05Zm-35.71,7.67h.24a7.28,7.28,0,0,0,4.24-1.21,11.56,11.56,0,0,0,2.6-2.53,37.87,37.87,0,0,0,2.46-3.67.15.15,0,0,0,0-.17c-.46-.73-.94-1.46-1.45-2.16a15.62,15.62,0,0,0-2.48-2.78,8.66,8.66,0,0,0-7.14-2A7.19,7.19,0,0,0,271.9,64a6.82,6.82,0,0,0-1,6.95,7.25,7.25,0,0,0,5,4.46A8.24,8.24,0,0,0,278.28,75.72Zm23.61,0a14.3,14.3,0,0,0,1.48-.08,7.6,7.6,0,0,0,5-2.73,7,7,0,0,0,.94-7.56,7.43,7.43,0,0,0-5.14-4.08,9,9,0,0,0-5.94.76,10.28,10.28,0,0,0-3,2.37,27.87,27.87,0,0,0-2.72,3.76.15.15,0,0,0,0,.17c.43.69.85,1.37,1.29,2a19,19,0,0,0,2.45,3.06,8.13,8.13,0,0,0,2.36,1.66A7.24,7.24,0,0,0,301.89,75.72Z"/><path class="cls-12" d="M290.14,89.68c0-.07-.08-.05-.12-.05a2.89,2.89,0,0,1-1.37-.45,2.21,2.21,0,0,1-.91-1.49,4.57,4.57,0,0,1-.07-.83v-5c0-.12,0-.14.14-.14.45,0,.91,0,1.36,0,.11,0,.13,0,.13.14V86.7a3.89,3.89,0,0,0,.05.68,1.06,1.06,0,0,0,1,.93,2.72,2.72,0,0,0,.57,0,1,1,0,0,0,.82-.69,3.12,3.12,0,0,0,.11-1c0-1.57,0-3.14,0-4.72,0-.17,0-.17.16-.17.44,0,.89,0,1.33,0,.1,0,.13,0,.13.13v4.77a3.53,3.53,0,0,1-.36,1.66,2.47,2.47,0,0,1-1.81,1.27l-.35,0s-.08,0-.07.05Z"/><path class="cls-12" d="M280.93,85.63V81.9c0-.12,0-.15.14-.15.89,0,1.78,0,2.67,0a4.11,4.11,0,0,1,1.58.37,2.65,2.65,0,0,1,1.43,1.72,5.69,5.69,0,0,1,0,3.32,3.11,3.11,0,0,1-2.19,2.14,5.41,5.41,0,0,1-1.55.2h-1.95c-.1,0-.13,0-.13-.13Zm1.63,0v2.41c0,.09,0,.12.12.12.27,0,.55,0,.82,0a1.72,1.72,0,0,0,1.58-1.28,4.77,4.77,0,0,0,0-2.46,1.57,1.57,0,0,0-1.36-1.25,7.38,7.38,0,0,0-1.05,0c-.11,0-.14,0-.14.14C282.57,84,282.56,84.84,282.56,85.64Z"/><path class="cls-12" d="M278.24,85.85a2.33,2.33,0,0,1,.78,1l1.25,2.54c.05.12.05.12-.08.12h-1.66a.14.14,0,0,1-.16-.11c-.35-.77-.7-1.54-1-2.32a1.1,1.1,0,0,0-1.11-.72c-.1,0-.14,0-.13.13v2.85c0,.18,0,.17-.16.17h-1.35c-.09,0-.13,0-.13-.12q0-3.77,0-7.53c0-.09,0-.12.12-.12.9,0,1.81,0,2.71,0a3.58,3.58,0,0,1,1.25.26,1.83,1.83,0,0,1,1.19,1.64,2.52,2.52,0,0,1-.08.91,1.79,1.79,0,0,1-1.16,1.19Zm-2.15-1.75V85h0c0,.08,0,.1.1.1h.44a2.22,2.22,0,0,0,.8-.15.9.9,0,0,0,.59-1,.8.8,0,0,0-.71-.82,4.94,4.94,0,0,0-1.15-.07c-.08,0-.07,0-.07.09Z"/><path class="cls-12" d="M270.4,81.75c.33,0,.65,0,1,0,.08,0,.12,0,.14.1.77,2.52,1.53,5,2.3,7.56,0,.09,0,.11-.08.11h-1.58c-.08,0-.11,0-.13-.1-.12-.43-.25-.86-.37-1.3,0-.08,0-.1-.14-.1h-2.39c-.08,0-.11,0-.13.1-.12.43-.25.85-.38,1.28,0,.09-.05.12-.15.12h-1.39c-.1,0-.11,0-.08-.12l2.28-7.53a.14.14,0,0,1,.16-.12C269.75,81.76,270.08,81.75,270.4,81.75Zm-.06,1.79s0,0,0,.06c-.29,1-.58,2-.88,3,0,.11,0,.09.09.09h1.58c.13,0,.13,0,.1-.13l-.57-2Z"/><path class="cls-12" d="M297.32,89.52h-2.41c-.1,0-.14,0-.13-.13V88.3c0-.09,0-.12.12-.12h1.48c.09,0,.12,0,.12-.12V83.2c0-.09,0-.12-.12-.12H294.9c-.09,0-.12,0-.12-.12v-1.1c0-.09,0-.12.11-.12h4.86c.1,0,.12,0,.12.13V83c0,.09,0,.12-.12.12h-1.48c-.09,0-.12,0-.12.12v4.86c0,.1,0,.13.12.12h1.47c.1,0,.13,0,.13.12q0,.56,0,1.11c0,.09,0,.11-.12.11Z"/><path class="cls-12" d="M312.62,58.65l.18-.56c0-.05,0-.13.06-.14a1.11,1.11,0,0,1,.26,0s0,.05,0,.08c0,.32,0,.64,0,1,0,.09-.06.08-.12.08s-.12,0-.12-.09a3.05,3.05,0,0,0,0-.52l-.15.48c0,.08,0,.14-.14.14s-.12-.07-.14-.14a4.29,4.29,0,0,0-.19-.5V59c0,.08,0,.12-.1.11s-.13,0-.13-.1c0-.31,0-.62,0-.92,0-.08,0-.11.11-.11s.21,0,.27.2.11.34.16.52Z"/><path class="cls-12" d="M311.55,57.94h.37c.1,0,.08.05.08.11s0,.12-.08.11h0c-.25,0-.25,0-.25.26V59c0,.1-.05.09-.11.09s-.13,0-.13-.08v-.71c0-.09,0-.13-.11-.11h-.1c-.12,0-.16-.07-.13-.18s.05,0,.09,0Z"/><path class="cls-12" d="M278.3,68.94h-3.82c-.1,0-.14,0-.14-.14,0-.49,0-1,0-1.48,0-.1,0-.13.13-.13h7.68c.09,0,.13,0,.13.12,0,.5,0,1,0,1.49,0,.11,0,.14-.13.14Z"/><path class="cls-12" d="M301.8,64.77h1c.1,0,.12,0,.12.12,0,.64,0,1.28,0,1.92,0,.1,0,.13.14.13h1.88c.1,0,.14,0,.14.13,0,.66,0,1.32,0,2,0,.11,0,.14-.13.14-.62,0-1.25,0-1.87,0-.17,0-.15,0-.15.16v1.89c0,.1,0,.13-.12.13h-2c-.09,0-.12,0-.12-.12,0-.65,0-1.29,0-1.94,0-.1,0-.13-.13-.13h-1.88c-.1,0-.14,0-.14-.13,0-.66,0-1.33,0-2,0-.1,0-.12.13-.12h1.88c.11,0,.14,0,.14-.13,0-.64,0-1.28,0-1.92,0-.1,0-.12.13-.12Z"/><path class="cls-13" d="M372.63,99.42c-14.15.36-26.14-11.86-26.1-26.15a26.42,26.42,0,0,1,26.86-25.93c13.14.39,25.39,11.62,25.26,26.06A25.92,25.92,0,0,1,372.63,99.42Zm1.21-27.69c-.16,0-.21.06-.19.2,0,1,0,2,0,3S373,76,372.31,76s-1-.34-1-1c0-.93,0-1.86,0-2.79,0-.57-.32-.54-.67-.5s-.83-.22-.81.47c0,1.22,0,2.44,0,3.66a1.48,1.48,0,0,0,1.65,1.5,2.73,2.73,0,0,0,1.55-.43c.14-.09.4-.35.46-.15.24.81.82.3,1.24.38.13,0,.18,0,.16-.15.09-1.68.07-3.35,0-5,0-.14,0-.23-.19-.2A1.7,1.7,0,0,0,373.84,71.73ZM380,75c0,.51,0,1,0,1.54s.32.62.77.63.78,0,.75-.66c-.05-1,0-2,0-3,0-.33,0-.68.46-.62s.66,0,.65-.55-.13-.67-.59-.65-.56-.09-.51-.5.22-.59.6-.61a1.29,1.29,0,0,1,.39,0c.43.11.58-.24.69-.52s-.25-.44-.49-.53a1.86,1.86,0,0,0-2.66,1.5c-.16.77-.65.8-1.22.7a3.22,3.22,0,0,0-.54-.1c-.28,0-.54,0-.51-.4s.13-.59.47-.65a2.46,2.46,0,0,1,.65.06c.39,0,.44-.33.56-.56s-.16-.42-.37-.52a1.89,1.89,0,0,0-2.75,1.45c-.06.41-.11.66-.6.63s-.35.29-.33.54-.14.65.2.64c1,0,.68.62.69,1.1,0,.84,0,1.67,0,2.51,0,.54.14.7.69.7s.83-.08.78-.73c-.06-.83,0-1.67,0-2.5s.21-1,1.05-1.07c1,0,1.4.25,1.23,1.25A5,5,0,0,0,380,75Zm-14.89-2.88c0-.67,0-1.25,0-1.82s-.17-.75-.75-.76-.77.17-.76.77c0,2,0,4,0,6.06,0,.26-.18.66.2.75s1.05.22,1.17-.07c.23-.57.38-.24.62-.1a2.26,2.26,0,0,0,2.89-.39,3.68,3.68,0,0,0,.1-4.15C367.86,71.37,366.75,71.26,365.14,72.12Zm21.08,2.74c.51,0,1,0,1.53,0,.35,0,.51-.08.52-.48a2.78,2.78,0,0,0-3.78-2.68,2.91,2.91,0,0,0-1.64,3.8A3.06,3.06,0,0,0,387,77c.29-.12.87-.14.65-.71s-.51-.66-1.1-.36a1.62,1.62,0,0,1-2.21-.51c-.19-.34-.25-.61.3-.59S385.7,74.86,386.22,74.86Zm-33.67-3.65,3.63,1.7a.84.84,0,0,0,.74,0l3.62-1.7c-1.35-.63-2.53-1.2-3.72-1.73a.75.75,0,0,0-.55,0C355.08,70,353.9,70.58,352.55,71.21Zm36.31,3.32c0,.64,0,1.28,0,1.91s.19.74.76.74.7-.2.67-.72.05-1.35,0-2a1.22,1.22,0,0,1,1.24-1.54c.25,0,.55,0,.51-.37s.13-.63-.2-.88-.49,0-.7.11c-.38.19-.62.4-1.17.15-.79-.37-1.08,0-1.08.88Zm-36.19,1,3.54,1.66a.6.6,0,0,0,.55,0c1-.48,2.09-1,3.13-1.46.39-.18.31-.4,0-.62a.93.93,0,0,0-1.15.1,3.42,3.42,0,0,1-4.31,0C353.84,74.9,353.29,75,352.67,75.56Zm0-2.16.92.47c3,1.42,3,1.42,5.95-.05.25-.13.76-.19.55-.61a.8.8,0,0,0-.95-.27,3.34,3.34,0,0,0-.69.32,3.1,3.1,0,0,1-3.88,0l-.25-.13A1.24,1.24,0,0,0,352.7,73.4Z"/><path class="cls-14" d="M380,75a5,5,0,0,1,0-.87c.17-1-.23-1.28-1.23-1.25-.84,0-1.13.21-1.05,1.07s0,1.67,0,2.5c0,.65-.23.72-.78.73s-.72-.16-.69-.7c0-.84,0-1.67,0-2.51,0-.48.27-1.14-.69-1.1-.34,0-.18-.41-.2-.64s-.06-.58.33-.54.54-.22.6-.63a1.89,1.89,0,0,1,2.75-1.45c.21.1.57.16.37.52s-.17.59-.56.56a2.46,2.46,0,0,0-.65-.06c-.34.06-.45.35-.47.65s.23.39.51.4a3.22,3.22,0,0,1,.54.1c.57.1,1.06.07,1.22-.7a1.86,1.86,0,0,1,2.66-1.5c.24.09.65.11.49.53s-.26.63-.69.52a1.29,1.29,0,0,0-.39,0c-.38,0-.55.25-.6.61s.16.51.51.5.58.21.59.65-.24.6-.65.55-.46.29-.46.62c0,1,0,2,0,3,0,.62-.26.67-.75.66s-.83,0-.77-.63S380,75.51,380,75Z"/><path class="cls-14" d="M365.14,72.12c1.61-.86,2.72-.75,3.51.29a3.68,3.68,0,0,1-.1,4.15,2.26,2.26,0,0,1-2.89.39c-.24-.14-.39-.47-.62.1-.12.29-.78.16-1.17.07s-.2-.49-.2-.75c0-2,0-4,0-6.06,0-.6.17-.77.76-.77s.81.14.75.76S365.14,71.45,365.14,72.12Zm1.23.69c-.87,0-1.23.44-1.23,1.5,0,1.3.28,1.68,1.22,1.69a1.43,1.43,0,0,0,1.41-1.58A1.47,1.47,0,0,0,366.37,72.81Z"/><path class="cls-14" d="M386.22,74.86c-.52,0-1,0-1.54,0s-.49.25-.3.59a1.62,1.62,0,0,0,2.21.51c.59-.3.9-.15,1.1.36s-.36.59-.65.71a3.06,3.06,0,0,1-4.19-1.52,2.91,2.91,0,0,1,1.64-3.8,2.78,2.78,0,0,1,3.78,2.68c0,.4-.17.49-.52.48C387.24,74.85,386.73,74.86,386.22,74.86Zm-.71-1a1.61,1.61,0,0,0,.38,0c.3-.09.8.25.88-.24s-.35-.72-.75-.88a1.38,1.38,0,0,0-1,0c-.4.16-.8.46-.73.89s.57.14.87.23A1.53,1.53,0,0,0,385.51,73.88Z"/><path class="cls-14" d="M375,71.93c.06,1.68.08,3.35,0,5l-.16.15c-.42-.08-1,.43-1.24-.38-.06-.2-.32.06-.46.15a2.73,2.73,0,0,1-1.55.43,1.48,1.48,0,0,1-1.65-1.5c-.07-1.22,0-2.44,0-3.66,0-.69.48-.44.81-.47s.69-.07.67.5c-.05.93,0,1.86,0,2.79,0,.68.3,1,1,1s1.28-.2,1.29-1.08,0-2,0-3l.19-.2a1.7,1.7,0,0,1,1,0Z"/><path class="cls-14" d="M352.55,71.21c1.35-.63,2.53-1.2,3.72-1.74a.75.75,0,0,1,.55,0c1.19.53,2.37,1.1,3.72,1.73l-3.62,1.7a.84.84,0,0,1-.74,0Z"/><path class="cls-14" d="M388.86,74.53V72.8c0-.93.29-1.25,1.08-.88.55.25.79,0,1.17-.15.21-.1.41-.33.7-.11s.17.59.2.88-.26.34-.51.37a1.22,1.22,0,0,0-1.24,1.54c.07.66,0,1.34,0,2s-.11.72-.67.72-.82-.11-.76-.74S388.86,75.17,388.86,74.53Z"/><path class="cls-14" d="M352.67,75.56c.62-.56,1.17-.66,1.75-.24a3.42,3.42,0,0,0,4.31,0,.93.93,0,0,1,1.15-.1c.32.22.4.44,0,.62-1,.5-2.09,1-3.13,1.46a.6.6,0,0,1-.55,0Z"/><path class="cls-14" d="M352.7,73.4a1.24,1.24,0,0,1,1.65-.28l.25.13a3.1,3.1,0,0,0,3.88,0,3.34,3.34,0,0,1,.69-.32.8.8,0,0,1,.95.27c.21.42-.3.48-.55.61-2.95,1.47-2.95,1.47-5.95.05Z"/><path class="cls-15" d="M373.84,71.73l-.19.2C373.63,71.79,373.68,71.7,373.84,71.73Z"/><path class="cls-15" d="M375,71.93l-.19-.2C375,71.7,375,71.79,375,71.93Z"/><path class="cls-15" d="M374.81,77.11,375,77C375,77.08,374.94,77.14,374.81,77.11Z"/><path class="cls-13" d="M366.37,72.81a1.47,1.47,0,0,1,1.4,1.61A1.43,1.43,0,0,1,366.36,76c-.94,0-1.22-.39-1.22-1.69C365.14,73.25,365.5,72.81,366.37,72.81Z"/><path class="cls-13" d="M385.51,73.88a1.53,1.53,0,0,1-.37,0c-.3-.09-.8.24-.87-.23s.33-.73.73-.89a1.38,1.38,0,0,1,1,0c.4.16.81.44.75.88s-.58.15-.88.24A1.61,1.61,0,0,1,385.51,73.88Z"/></g></g></svg>