<svg xmlns="http://www.w3.org/2000/svg" viewBox="0 0 55.04 61.68"><defs><style>.cls-1{fill:#a1a1a1;}.cls-2{fill:#aca2e4;}.cls-3{fill:#fff;}</style></defs><title>insta</title><g id="Layer_2" data-name="Layer 2"><g id="Layer_1-2" data-name="Layer 1"><path class="cls-1" d="M53.82,43.24V18.44a4.83,4.83,0,0,0-2.41-4.18L29.93,1.86a4.82,4.82,0,0,0-4.82,0L3.63,14.26a4.83,4.83,0,0,0-2.41,4.18v24.8a4.83,4.83,0,0,0,2.41,4.18l21.48,12.4a4.82,4.82,0,0,0,4.82,0l21.48-12.4A4.83,4.83,0,0,0,53.82,43.24Z"/><path class="cls-2" d="M27.52,61.68a6.12,6.12,0,0,1-3-.8L3,48.48a6.08,6.08,0,0,1-3-5.24V18.44a6.06,6.06,0,0,1,3-5.23L24.5.81a6,6,0,0,1,6,0L52,13.21a6.06,6.06,0,0,1,3,5.23v24.8a6.08,6.08,0,0,1-3,5.24L30.54,60.88A6.09,6.09,0,0,1,27.52,61.68Zm0-59.24a3.62,3.62,0,0,0-1.8.48L4.24,15.32a3.62,3.62,0,0,0-1.8,3.12v24.8a3.62,3.62,0,0,0,1.8,3.12l21.48,12.4a3.63,3.63,0,0,0,3.61,0L50.8,46.36a3.62,3.62,0,0,0,1.8-3.12V18.44a3.62,3.62,0,0,0-1.8-3.12L29.32,2.92A3.6,3.6,0,0,0,27.52,2.44Z"/><path class="cls-3" d="M27.52,18.77c3.93,0,4.4,0,5.95.08,4,.18,5.86,2.08,6,6,.07,1.55.09,2,.09,5.95s0,4.4-.09,5.95c-.18,4-2,5.86-6,6-1.55.07-2,.09-5.95.09s-4.4,0-5.95-.09c-4-.18-5.86-2.08-6-6-.07-1.55-.08-2-.08-5.95s0-4.4.08-5.95c.18-4,2-5.86,6-6C23.12,18.78,23.59,18.77,27.52,18.77Zm0-2.66c-4,0-4.5,0-6.07.09-5.35.25-8.32,3.21-8.57,8.57-.07,1.57-.09,2.07-.09,6.07s0,4.5.09,6.07c.25,5.35,3.21,8.33,8.57,8.57,1.57.07,2.07.09,6.07.09s4.5,0,6.08-.09c5.34-.24,8.32-3.21,8.56-8.57.07-1.57.09-2.07.09-6.07s0-4.5-.09-6.07c-.24-5.35-3.21-8.32-8.56-8.57C32,16.13,31.52,16.11,27.52,16.11Zm0,7.17a7.57,7.57,0,1,0,7.57,7.56A7.55,7.55,0,0,0,27.52,23.28Zm0,12.47a4.91,4.91,0,1,1,4.91-4.91A4.91,4.91,0,0,1,27.52,35.75Zm7.86-14.54A1.77,1.77,0,1,0,37.15,23,1.76,1.76,0,0,0,35.38,21.21Z"/></g></g></svg>