<svg xmlns="http://www.w3.org/2000/svg" viewBox="0 0 271.97 32.52"><defs><style>.cls-1{fill:#777;}</style></defs><title>Asset 11</title><g id="Layer_2" data-name="Layer 2"><g id="Layer_1-2" data-name="Layer 1"><path class="cls-1" d="M20.55.74V21.62a9.64,9.64,0,0,1-2.38,6.81A8.11,8.11,0,0,1,12,31H8.06a7.54,7.54,0,0,1-5.77-2.48C.76,26.86,0,24.49,0,21.42v-4H8.37v2.85q0,2.37,1.53,2.37h.27q1.44,0,1.44-2.61V.74Z"/><path class="cls-1" d="M43.2,14.89v6.59H31.59V22c0,1.38.64,2.08,1.94,2.08H34c1,0,1.48-.53,1.54-1.58h7.73a8.11,8.11,0,0,1-2.46,6,7.63,7.63,0,0,1-5.4,2.24H31.62A8,8,0,0,1,25.51,28,9.93,9.93,0,0,1,23.05,21V14.76A10.33,10.33,0,0,1,25.6,7.55a8.63,8.63,0,0,1,6.76-2.83h1.57a8.53,8.53,0,0,1,6.78,2.86A10.73,10.73,0,0,1,43.2,14.89Zm-12.35.77h4.72c0-2.48-.68-3.71-2-3.71h-.7C31.51,12,30.85,13.18,30.85,15.66Z"/><path class="cls-1" d="M65.05,22.05c0,2.83-.85,5-2.54,6.43a9.9,9.9,0,0,1-6.66,2.17H54a9.73,9.73,0,0,1-6.59-2.19,8,8,0,0,1-2.55-6.41V13.22q0-4.22,2.55-6.36A9.86,9.86,0,0,1,54,4.72h1.81a10,10,0,0,1,6.66,2.14Q65,9,65.05,13.22Zm-7.83-1.71V14.89c0-1.78-.59-2.68-1.77-2.68h-.67c-1.14,0-1.71.9-1.71,2.68v5.45c0,1.81.57,2.71,1.71,2.71h.67C56.63,23.05,57.22,22.15,57.22,20.34Z"/><path class="cls-1" d="M87.77,30.08H79.34V15.53c0-1.5-.62-2.25-1.84-2.25a1.57,1.57,0,0,0-1.36.69,2.72,2.72,0,0,0-.48,1.59V30.08H67.22V5.29h7.93v.83a7.38,7.38,0,0,1,1.93-.73A10.06,10.06,0,0,1,79.34,5a8.48,8.48,0,0,1,6,2,7.59,7.59,0,0,1,2.41,6.07Z"/><path class="cls-1" d="M122.57,21.11q0,5-2.46,7.35t-7.31,2.36h-3.28q-4.78,0-7.13-2.93c-1.56-1.95-2.35-4.75-2.37-8.38h8.8a4.27,4.27,0,0,0,.6,2.42,1.78,1.78,0,0,0,1.54.89h.53a3.42,3.42,0,0,0,1.68-.33,1.49,1.49,0,0,0,.56-1.38A1.65,1.65,0,0,0,113.4,20a1.39,1.39,0,0,0-.62-.48c-.19-.06-.47-.13-.85-.22l-4.29-.94a17.31,17.31,0,0,1-3.38-1,8.39,8.39,0,0,1-2.4-1.66A6,6,0,0,1,100.3,13a14.88,14.88,0,0,1-.49-4.08q0-4.65,2.33-6.78T109.22,0h2.47a9.91,9.91,0,0,1,7.53,2.84q2.72,2.85,2.51,8.14H113c0-2.08-.63-3.12-1.9-3.12h-.54c-1.23,0-1.84.47-1.84,1.41a2.7,2.7,0,0,0,.1.82,1,1,0,0,0,.34.5,2.38,2.38,0,0,0,.41.27,3.86,3.86,0,0,0,.52.15l3.62,1c1.18.31,2.13.59,2.86.84a14.07,14.07,0,0,1,2.37,1.08,6.68,6.68,0,0,1,2,1.61,7.79,7.79,0,0,1,1.18,2.31A10,10,0,0,1,122.57,21.11Z"/><path class="cls-1" d="M144.15,14.89v6.59H132.54V22c0,1.38.65,2.08,1.94,2.08h.44c1,0,1.47-.53,1.53-1.58h7.73a8.11,8.11,0,0,1-2.46,6,7.63,7.63,0,0,1-5.4,2.24h-3.75a8,8,0,0,1-6.1-2.63A9.93,9.93,0,0,1,124,21V14.76a10.33,10.33,0,0,1,2.54-7.21,8.63,8.63,0,0,1,6.76-2.83h1.57a8.51,8.51,0,0,1,6.78,2.86A10.73,10.73,0,0,1,144.15,14.89Zm-12.35.77h4.72c0-2.48-.68-3.71-2-3.71h-.7C132.46,12,131.8,13.18,131.8,15.66Z"/><path class="cls-1" d="M166,22.05c0,2.83-.85,5-2.54,6.43a9.9,9.9,0,0,1-6.66,2.17H155a9.75,9.75,0,0,1-6.59-2.19,8,8,0,0,1-2.54-6.41V13.22c0-2.81.84-4.93,2.54-6.36A9.87,9.87,0,0,1,155,4.72h1.81a10,10,0,0,1,6.66,2.14Q166,9,166,13.22Zm-7.83-1.71V14.89c0-1.78-.59-2.68-1.77-2.68h-.67c-1.14,0-1.71.9-1.71,2.68v5.45c0,1.81.57,2.71,1.71,2.71h.67C157.58,23.05,158.17,22.15,158.17,20.34Z"/><path class="cls-1" d="M187.42,30.08h-9V.74h9v9.5h5.35V.74h9V30.08h-9V19.78h-5.35Z"/><path class="cls-1" d="M225.53,5.29V25.06q0,7.47-7.33,7.46h-12V25.77h9.07a1.62,1.62,0,0,0,1.37-.47,2.47,2.47,0,0,0,.33-1.41,3.33,3.33,0,0,1-1.7.47h-3.48c-2.55,0-4.37-.62-5.48-1.86s-1.65-3.17-1.65-5.8V5.29h8.6v9.33a2.05,2.05,0,0,0,.42,1.54,1.85,1.85,0,0,0,1.28.37h1c.64,0,1-.39,1-1.17V5.29Z"/><path class="cls-1" d="M248.75,30.08h-7.46v-.63a8.79,8.79,0,0,1-4.85,1,8.15,8.15,0,0,1-6.06-2.09,8,8,0,0,1-2.17-6V5.29h8.43V20.18a2.58,2.58,0,0,0,.47,1.72,1.46,1.46,0,0,0,1.17.55h.57c1,0,1.47-.7,1.47-2.11v-15h8.43Z"/><path class="cls-1" d="M272,30.08h-8.43V15.53c0-1.5-.61-2.25-1.84-2.25a1.58,1.58,0,0,0-1.36.69,2.72,2.72,0,0,0-.48,1.59V30.08h-8.43V5.29h7.93v.83a7.14,7.14,0,0,1,1.92-.73A10.06,10.06,0,0,1,263.54,5a8.47,8.47,0,0,1,6,2A7.59,7.59,0,0,1,272,13.08Z"/></g></g></svg>