<svg xmlns="http://www.w3.org/2000/svg" viewBox="0 0 369.21 56.58"><defs><style>.cls-1{fill:#aca2e4;}.cls-2{fill:#fff;}</style></defs><title>M_c</title><g id="Layer_2" data-name="Layer 2"><g id="Layer_1-2" data-name="Layer 1"><path class="cls-1" d="M365.07,56.58H4.13C1.86,56.58,0,55.12,0,53.33V3.24C0,1.46,1.86,0,4.13,0H365.07c2.28,0,4.14,1.46,4.14,3.24V53.33C369.21,55.12,367.35,56.58,365.07,56.58Z"/><path class="cls-2" d="M44.75,21.11V32.35a9.78,9.78,0,0,1-2.82,7.45,10.54,10.54,0,0,1-7.56,2.67H20.26V11H34.37a10.54,10.54,0,0,1,7.56,2.67A9.8,9.8,0,0,1,44.75,21.11ZM35.92,31V22.36a3.24,3.24,0,0,0-.85-2.58,4.27,4.27,0,0,0-2.78-.72H29.53V34.32h2.76a4.33,4.33,0,0,0,2.8-.7A3.42,3.42,0,0,0,35.92,31Z"/><path class="cls-2" d="M57.43,18.66h-9.8V10.29h9.8Zm-.21,23.81H47.84V20.89h9.38Z"/><path class="cls-2" d="M68.56,15.5H82.1V37.05A9,9,0,0,1,80.33,43c-1.19,1.41-3.19,2.12-6,2.12H62.24V37.84H71.4a1.6,1.6,0,0,0,1.26-.36,2.38,2.38,0,0,0,.29-1.4,3.81,3.81,0,0,1-1.33.25H68.38c-3,0-5-.58-6.26-1.76s-1.82-3.13-1.82-5.89V23.37q0-4,2-5.93T68.56,15.5Zm4.6,12.21V23.37H71a3,3,0,0,0-1.67.38,1.73,1.73,0,0,0-.59,1.56V26.6a2.13,2.13,0,0,0,.54,1.72,3.1,3.1,0,0,0,1.9.44h1.08a1,1,0,0,0,.73-.2A1.28,1.28,0,0,0,73.16,27.71Z"/><path class="cls-2" d="M95.32,18.66H85.51V10.29h9.81ZM95.1,42.47H85.73V20.89H95.1Z"/><path class="cls-2" d="M117.26,34.18v8.51a32.43,32.43,0,0,1-8.18.9A7.89,7.89,0,0,1,103.53,42q-2-1.7-2-5.76V24.84h-4v-9h4V10.69H111v5.17h6.11v9H111v7.83a2.73,2.73,0,0,0,.33,1.58,1.12,1.12,0,0,0,1,.43A20.22,20.22,0,0,0,117.26,34.18Z"/><path class="cls-2" d="M139.75,42.47h-7.47v-.32a7.43,7.43,0,0,1-3.67.79H127a8.5,8.5,0,0,1-5.87-2,6.63,6.63,0,0,1-2.21-5.22V31.2a5.55,5.55,0,0,1,2.21-4.78,10,10,0,0,1,6-1.62,8.32,8.32,0,0,1,3.59.58c0-1.17-1-1.76-2.91-1.76a18.42,18.42,0,0,0-4.31.56,13.8,13.8,0,0,0-4,1.56V17a19.49,19.49,0,0,1,4.67-1.37,33.81,33.81,0,0,1,5.93-.61c3.4-.05,5.84.62,7.34,2s2.25,3.66,2.25,6.84Zm-8.19-7.75V31.84a2.81,2.81,0,0,0-1.94-.53h-1a1.94,1.94,0,0,0-1.39.46,1.67,1.67,0,0,0-.48,1.26v.65a1.7,1.7,0,0,0,.54,1.32,2.05,2.05,0,0,0,1.47.51h.93A2.05,2.05,0,0,0,131.56,34.72Z"/><path class="cls-2" d="M152.6,42.47h-9.44V10.87h9.44Z"/><path class="cls-2" d="M196,42.47H187.4V31.7l-3.84,10.45h-4.13l-3.91-10.41V42.47H167V11h8.65l5.82,16.81L187.33,11H196Z"/><path class="cls-2" d="M219.33,42.47h-7.47v-.32a7.36,7.36,0,0,1-3.66.79h-1.65a8.53,8.53,0,0,1-5.88-2,6.63,6.63,0,0,1-2.21-5.22V31.2a5.55,5.55,0,0,1,2.21-4.78,10.06,10.06,0,0,1,6.05-1.62,8.38,8.38,0,0,1,3.6.58c0-1.17-1-1.76-2.91-1.76a18.42,18.42,0,0,0-4.31.56,13.69,13.69,0,0,0-3.95,1.56V17a19.34,19.34,0,0,1,4.67-1.37,33.7,33.7,0,0,1,5.92-.61c3.4-.05,5.85.62,7.35,2s2.24,3.66,2.24,6.84Zm-8.19-7.75V31.84a2.8,2.8,0,0,0-1.94-.53h-1a1.9,1.9,0,0,0-1.38.46,1.68,1.68,0,0,0-.49,1.26v.65a1.7,1.7,0,0,0,.54,1.32,2.06,2.06,0,0,0,1.48.51h.93A2,2,0,0,0,211.14,34.72Z"/><path class="cls-2" d="M238.72,15.25v9.2a12.17,12.17,0,0,0-2.22.34,11.16,11.16,0,0,0-2.25.82,4.74,4.74,0,0,0-1.83,1.58,4.19,4.19,0,0,0-.7,2.43V42.47h-9.34V15.86h8.87v1.69a6.62,6.62,0,0,1,3-1.72A12.45,12.45,0,0,1,238.72,15.25Z"/><path class="cls-2" d="M266,42.47h-11.1L250,34.93v7.54h-9.27V10.87H250V22.36l5.1-6.86H266L255.93,28.29Z"/><path class="cls-2" d="M286.92,26.17v7.07H274.46v.51c0,1.48.69,2.22,2.08,2.22H277q1.55,0,1.65-1.68H287a8.76,8.76,0,0,1-2.64,6.39,8.19,8.19,0,0,1-5.8,2.4h-4a8.62,8.62,0,0,1-6.56-2.81,10.68,10.68,0,0,1-2.64-7.6V26A11.12,11.12,0,0,1,268,18.29a9.27,9.27,0,0,1,7.26-3H277a9.16,9.16,0,0,1,7.28,3.07A11.55,11.55,0,0,1,286.92,26.17ZM273.67,27h5.06q0-4-2.19-4h-.75Q273.67,23,273.67,27Z"/><path class="cls-2" d="M307.82,34.18v8.51a32.43,32.43,0,0,1-8.18.9A7.89,7.89,0,0,1,294.09,42q-2-1.7-2-5.76V24.84h-4v-9h4V10.69h9.45v5.17h6.1v9h-6.1v7.83a2.74,2.74,0,0,0,.32,1.58,1.12,1.12,0,0,0,1,.43A20.17,20.17,0,0,0,307.82,34.18Z"/><path class="cls-2" d="M331.06,26.17v7.07H318.6v.51c0,1.48.69,2.22,2.08,2.22h.47q1.55,0,1.65-1.68h8.3a8.76,8.76,0,0,1-2.64,6.39,8.19,8.19,0,0,1-5.8,2.4h-4a8.6,8.6,0,0,1-6.55-2.81,10.68,10.68,0,0,1-2.64-7.6V26a11.12,11.12,0,0,1,2.73-7.74,9.26,9.26,0,0,1,7.25-3h1.69a9.16,9.16,0,0,1,7.28,3.07A11.55,11.55,0,0,1,331.06,26.17ZM317.81,27h5.06q0-4-2.19-4h-.75C318.51,23,317.81,24.34,317.81,27Z"/><path class="cls-2" d="M350,15.25v9.2a12.17,12.17,0,0,0-2.22.34,10.94,10.94,0,0,0-2.25.82,4.74,4.74,0,0,0-1.83,1.58,4.19,4.19,0,0,0-.7,2.43V42.47h-9.34V15.86h8.87v1.69a6.62,6.62,0,0,1,3-1.72A12.45,12.45,0,0,1,350,15.25Z"/></g></g></svg>