<svg xmlns="http://www.w3.org/2000/svg" viewBox="0 0 164.42 183.15"><defs><style>.cls-1{fill:#a1a1a1;stroke:#aca2e4;stroke-miterlimit:10;stroke-width:9px;}.cls-2{fill:#fff;}</style></defs><title>mark_ma</title><g id="Layer_2" data-name="Layer 2"><g id="Layer_1-2" data-name="Layer 1"><g id="Layer_2-2" data-name="Layer 2"><g id="Layer_1-2-2" data-name="Layer 1-2"><path class="cls-1" d="M159.92,128V55.13a14.19,14.19,0,0,0-7.13-12.29L89.34,6.4a14.34,14.34,0,0,0-14.26,0L11.63,42.84A14.19,14.19,0,0,0,4.5,55.13V128a14.19,14.19,0,0,0,7.13,12.29l63.45,36.44a14.34,14.34,0,0,0,14.26,0l63.45-36.44A14.19,14.19,0,0,0,159.92,128Z"/><path class="cls-2" d="M50.07,128.83a3.4,3.4,0,0,1-1.56-.39A3.3,3.3,0,0,1,47.15,124L66.82,87.41a3.33,3.33,0,0,1,4.7-1.24l26.39,16.59,12.11-43a3.32,3.32,0,0,1,6.4,1.78L103.1,108.82a3.31,3.31,0,0,1-2,2.19,3.35,3.35,0,0,1-3-.29L71,93.66,53,127.08A3.32,3.32,0,0,1,50.07,128.83Z"/><ellipse class="cls-2" cx="50.34" cy="126.3" rx="7.51" ry="7.47"/><ellipse class="cls-2" cx="70" cy="89.22" rx="6.47" ry="6.44"/><ellipse class="cls-2" cx="100.25" cy="104.03" rx="10.61" ry="10.56"/><path class="cls-2" d="M102.26,66.31l17.83,5.51a1.16,1.16,0,0,0,1.44-.77,1.23,1.23,0,0,0,0-.47l-2.46-20.19a1.16,1.16,0,0,0-2-.68L101.79,64.39a1.14,1.14,0,0,0,0,1.62A1.18,1.18,0,0,0,102.26,66.31Z"/></g></g></g></g></svg>