<svg xmlns="http://www.w3.org/2000/svg" viewBox="0 0 203 228.64"><defs><style>.cls-1{fill:#a1a1a1;}.cls-2{fill:none;stroke:#fff;stroke-linecap:round;stroke-linejoin:round;stroke-width:9px;}.cls-3{fill:#fff;}</style></defs><title>Asset 19</title><g id="Layer_2" data-name="Layer 2"><g id="Layer_1-2" data-name="Layer 1"><path class="cls-1" d="M203,162.17V66.47a18.64,18.64,0,0,0-9.31-16.13L110.81,2.5a18.6,18.6,0,0,0-18.62,0L9.31,50.34A18.64,18.64,0,0,0,0,66.47v95.7A18.64,18.64,0,0,0,9.31,178.3l82.88,47.85a18.65,18.65,0,0,0,18.62,0l82.88-47.85A18.64,18.64,0,0,0,203,162.17Z"/><polyline class="cls-2" points="57.96 160.56 84.61 110.77 125.48 136.59 143.52 72.2"/><circle class="cls-3" cx="58.31" cy="161.62" r="10.17"/><circle class="cls-3" cx="84.96" cy="111.12" r="8.77"/><circle class="cls-3" cx="125.94" cy="131.28" r="14.38"/><path class="cls-3" d="M128.67,79.91l24.16,7.5a1.56,1.56,0,0,0,2-1.68l-3.33-27.5a1.57,1.57,0,0,0-2.64-.93l-20.83,20A1.56,1.56,0,0,0,128.67,79.91Z"/></g></g></svg>