<?xml version="1.0" encoding="utf-8"?>
<!-- Generator: Adobe Illustrator 22.1.0, SVG Export Plug-In . SVG Version: 6.00 Build 0)  -->
<svg version="1.1" id="Layer_1" xmlns="http://www.w3.org/2000/svg" xmlns:xlink="http://www.w3.org/1999/xlink" x="0px" y="0px"
	 viewBox="0 0 212 237.6" style="enable-background:new 0 0 212 237.6;" xml:space="preserve">
<style type="text/css">
	.st0{fill:none;stroke:#A1A1A1;stroke-width:9;stroke-miterlimit:10;}
	.st1{fill:none;stroke:#A1A1A1;stroke-width:9;stroke-linecap:round;stroke-linejoin:round;}
	.st2{fill:#A1A1A1;}
</style>
<title>Asset 25</title>
<g id="Layer_2_1_">
	<g id="Layer_1-2">
		<path class="st0" d="M207.5,166.7V71c0-6.7-3.6-12.8-9.3-16.1L115.3,7c-5.8-3.3-12.9-3.3-18.6,0L13.8,54.8C8,58.2,4.5,64.3,4.5,71
			v95.7c0,6.7,3.6,12.8,9.3,16.1l82.9,47.8c5.8,3.3,12.9,3.3,18.6,0l82.9-47.9C204,179.5,207.5,173.3,207.5,166.7z"/>
		<polyline class="st1" points="62.5,165.1 89.1,115.3 130,141.1 148,76.7 		"/>
		<circle class="st2" cx="62.8" cy="166.1" r="10.2"/>
		<circle class="st2" cx="89.5" cy="115.6" r="8.8"/>
		<circle class="st2" cx="130.4" cy="135.8" r="14.4"/>
		<path class="st2" d="M133.2,84.4l24.2,7.5c0.8,0.2,1.7-0.2,1.9-1c0.1-0.2,0.1-0.4,0.1-0.6L156,62.7c-0.1-0.9-0.9-1.5-1.8-1.4
			c-0.3,0-0.6,0.2-0.9,0.4l-20.8,20c-0.6,0.6-0.6,1.6,0,2.2C132.7,84.2,132.9,84.3,133.2,84.4z"/>
	</g>
</g>
</svg>
