<svg xmlns="http://www.w3.org/2000/svg" viewBox="0 0 312.32 61"><defs><style>.cls-1{fill:#a1a1a1;}.cls-2{fill:#fff;}</style></defs><title>Asset 22</title><g id="Layer_2" data-name="Layer 2"><g id="Layer_1-2" data-name="Layer 1"><rect class="cls-1" width="312.32" height="61" rx="3.5" ry="3.5"/><path class="cls-2" d="M68.8,47.26H59.63V35.7L55.51,46.91H51.07l-4.2-11.17V47.26H37.7V13.46H47l6.24,18,6.32-18H68.8Z"/><path class="cls-2" d="M95.21,13.46l9.59,33.8H94.32l-1.27-4.78H82.29l-1.23,4.78H70.54l9.56-33.8ZM86.8,25.25l-2.27,8.67h6.24l-2.31-8.67Z"/><path class="cls-2" d="M116.75,47.26H106.54V13.46h16.61a9.55,9.55,0,0,1,7.24,2.87c1.83,1.91,2.74,4.66,2.74,8.23a15.69,15.69,0,0,1-1.1,6A12.16,12.16,0,0,1,129.08,35L134,47.26H123.5L120,37h-3.2Zm3.39-25.17h-4v6.05h4a7.33,7.33,0,0,0,1.22-.09,5.16,5.16,0,0,0,1.11-.37,1.9,1.9,0,0,0,.93-1,4.19,4.19,0,0,0,.33-1.78,3.33,3.33,0,0,0-.27-1.42,3.28,3.28,0,0,0-.54-.87,1.72,1.72,0,0,0-.91-.42,5.23,5.23,0,0,0-.88-.14Z"/><path class="cls-2" d="M165.35,47.26h-12.1l-5.78-9.79-1.2,1.77v8H136.1V13.46h10.17v10l5.9-10h12.14L154.18,29.15Z"/><path class="cls-2" d="M190.87,38.2v9.06H166.78V13.46h23.74v9H177.11v3.39h13.41v9H177.11V38.2Z"/><path class="cls-2" d="M211.22,47.26H200.46V23.56h-7.82V13.46H219.2v10.1h-8Z"/><path class="cls-2" d="M245.79,38.2v9.06H221.7V13.46h23.74v9H232v3.39h13.41v9H232V38.2Z"/><path class="cls-2" d="M258.74,47.26H248.53V13.46h16.61a9.55,9.55,0,0,1,7.24,2.87c1.83,1.91,2.74,4.66,2.74,8.23a15.89,15.89,0,0,1-1.1,6A12.16,12.16,0,0,1,271.07,35L276,47.26H265.49L261.94,37h-3.2Zm3.39-25.17h-4v6.05h4a7.33,7.33,0,0,0,1.22-.09,5.16,5.16,0,0,0,1.11-.37,1.9,1.9,0,0,0,.93-1,4.19,4.19,0,0,0,.33-1.78,3.33,3.33,0,0,0-.27-1.42,3.28,3.28,0,0,0-.54-.87,1.72,1.72,0,0,0-.91-.42,5.16,5.16,0,0,0-.89-.14Z"/></g></g></svg>