<svg xmlns="http://www.w3.org/2000/svg" viewBox="0 0 106.74 44.36"><defs><style>.cls-1{fill:#777;}.cls-2{fill:#fff;}</style></defs><title>Asset 12</title><g id="Layer_2" data-name="Layer 2"><g id="Layer_1-2" data-name="Layer 1"><path class="cls-1" d="M105.54,44.36H1.19C.54,44.36,0,43.21,0,41.81V2.54C0,1.14.54,0,1.19,0H105.54c.66,0,1.2,1.14,1.2,2.54V41.81C106.74,43.21,106.2,44.36,105.54,44.36Z"/><path class="cls-2" d="M29.39,26.53q0,3.95-1.93,5.82a7.89,7.89,0,0,1-5.7,1.86H19.2a6.66,6.66,0,0,1-5.57-2.31,10.64,10.64,0,0,1-1.86-6.64h6.88a3.37,3.37,0,0,0,.47,1.92,1.39,1.39,0,0,0,1.2.7h.42a2.64,2.64,0,0,0,1.3-.26,1.17,1.17,0,0,0,.45-1.09,1.35,1.35,0,0,0-.26-.85,1.1,1.1,0,0,0-.49-.38l-.66-.17-3.35-.74a13.84,13.84,0,0,1-2.64-.82,6.54,6.54,0,0,1-1.88-1.32A4.75,4.75,0,0,1,12,20.09a11.59,11.59,0,0,1-.38-3.23q0-3.67,1.81-5.36c1.21-1.12,3.06-1.68,5.53-1.68h1.93a7.68,7.68,0,0,1,5.88,2.25c1.41,1.5,2.07,3.64,2,6.43H21.89c0-1.64-.5-2.46-1.49-2.46H20q-1.44,0-1.44,1.11a2.25,2.25,0,0,0,.08.65.8.8,0,0,0,.26.4,1.28,1.28,0,0,0,.33.21,1.37,1.37,0,0,0,.4.12l2.83.77c.92.25,1.66.47,2.23.66a11.85,11.85,0,0,1,1.85.86,5.39,5.39,0,0,1,1.56,1.27A6.51,6.51,0,0,1,29,23.92,8.25,8.25,0,0,1,29.39,26.53Z"/><path class="cls-2" d="M49.27,33.63H41.2l-3.56-5.56v5.56H30.9V10.32h6.74V18.8l3.71-5.06h7.89l-7.31,9.43Z"/><path class="cls-2" d="M58,16.07H50.84V9.9H58Zm-.16,17.56H51V17.71h6.82Z"/><path class="cls-2" d="M67.45,33.63H60.58V10.32h6.87Z"/><path class="cls-2" d="M76.94,33.63H70.07V10.32h6.87Z"/><path class="cls-2" d="M94.6,27.67a6.13,6.13,0,0,1-6.66,6.47H86.21a7.81,7.81,0,0,1-2.45-.38,7.18,7.18,0,0,1-2.2-1.16,5.59,5.59,0,0,1-1.68-2.29,9.45,9.45,0,0,1-.69-3.54h6.48c0,1.11.54,1.67,1.54,1.67a1.17,1.17,0,0,0,.76-.23.7.7,0,0,0,.28-.59.85.85,0,0,0-.15-.57,1,1,0,0,0-.55-.25L84.18,26a8.53,8.53,0,0,1-4-1.88A5.53,5.53,0,0,1,78.87,20a6.41,6.41,0,0,1,1.75-4.74,6.83,6.83,0,0,1,5-1.75H87.5a6.21,6.21,0,0,1,5,2.08,7.94,7.94,0,0,1,1.8,5.26H87.91a3.18,3.18,0,0,0-.23-1.41,1,1,0,0,0-.94-.42c-.68,0-1,.27-1.07.82s.16.9.6,1l3,.74a8.64,8.64,0,0,1,4.19,2A5.77,5.77,0,0,1,94.6,27.67Z"/></g></g></svg>