<svg xmlns="http://www.w3.org/2000/svg" viewBox="0 0 55.04 61.68"><defs><style>.cls-1{fill:#a1a1a1;}.cls-2{fill:#aca2e4;}.cls-3{fill:#fff;}</style></defs><title>Asset 15</title><g id="Layer_2" data-name="Layer 2"><g id="Layer_1-2" data-name="Layer 1"><path class="cls-1" d="M53.82,43.24V18.44a4.83,4.83,0,0,0-2.41-4.18L29.93,1.86a4.82,4.82,0,0,0-4.82,0L3.63,14.26a4.83,4.83,0,0,0-2.41,4.18v24.8a4.83,4.83,0,0,0,2.41,4.18l21.48,12.4a4.82,4.82,0,0,0,4.82,0l21.48-12.4A4.83,4.83,0,0,0,53.82,43.24Z"/><path class="cls-2" d="M27.52,61.68a6.12,6.12,0,0,1-3-.8L3,48.48a6.08,6.08,0,0,1-3-5.24V18.44a6.06,6.06,0,0,1,3-5.23L24.5.81a6,6,0,0,1,6,0L52,13.21a6.06,6.06,0,0,1,3,5.23v24.8a6.08,6.08,0,0,1-3,5.24L30.54,60.88A6.09,6.09,0,0,1,27.52,61.68Zm0-59.24a3.62,3.62,0,0,0-1.8.48L4.24,15.32a3.62,3.62,0,0,0-1.8,3.12v24.8a3.62,3.62,0,0,0,1.8,3.12l21.48,12.4a3.63,3.63,0,0,0,3.61,0L50.8,46.36a3.62,3.62,0,0,0,1.8-3.12V18.44a3.62,3.62,0,0,0-1.8-3.12L29.32,2.92A3.6,3.6,0,0,0,27.52,2.44Z"/><path class="cls-3" d="M40.93,39.44c.1-1.35-1.24-2.43-3.83-4.95s-4.9.9-7,1.62c-1.87.64-8.22-6.41-7.39-8.2.93-2,4.57-4,2.33-6.82s-3.17-4.28-4.52-4.32a8.22,8.22,0,0,0-5.34,7.53C15,30,27.22,43.52,32.89,44A8.2,8.2,0,0,0,40.93,39.44Z"/></g></g></svg>