<svg xmlns="http://www.w3.org/2000/svg" viewBox="0 0 244.37 30.11"><defs><style>.cls-1{fill:#777;}</style></defs><title>w_name</title><g id="Layer_2" data-name="Layer 2"><g id="Layer_1-2" data-name="Layer 1"><path class="cls-1" d="M20.45,0V20.78a9.56,9.56,0,0,1-2.37,6.78,8,8,0,0,1-6.19,2.55H8a7.52,7.52,0,0,1-5.75-2.47Q0,25.18,0,20.58v-4H8.33v2.83c0,1.58.51,2.36,1.53,2.36h.26c1,0,1.44-.86,1.44-2.59V0Z"/><path class="cls-1" d="M42.33,14.09v6.56H30.77v.46c0,1.38.65,2.07,1.93,2.07h.44c1,0,1.46-.52,1.53-1.57h7.69a8.11,8.11,0,0,1-2.45,5.93,7.57,7.57,0,0,1-5.38,2.23H30.8a8,8,0,0,1-6.07-2.61,9.9,9.9,0,0,1-2.45-7V14a10.3,10.3,0,0,1,2.53-7.17A8.6,8.6,0,0,1,31.54,4H33.1a8.5,8.5,0,0,1,6.75,2.85A10.69,10.69,0,0,1,42.33,14.09ZM30,14.85h4.69c0-2.46-.67-3.69-2-3.69H32C30.69,11.16,30,12.39,30,14.85Z"/><path class="cls-1" d="M63.41,21.21a8,8,0,0,1-2.53,6.4,9.87,9.87,0,0,1-6.63,2.16h-1.8a9.68,9.68,0,0,1-6.56-2.18,8,8,0,0,1-2.53-6.38V12.42c0-2.8.84-4.9,2.53-6.33A9.86,9.86,0,0,1,52.45,4h1.8a10,10,0,0,1,6.63,2.13,7.84,7.84,0,0,1,2.53,6.33Zm-7.79-1.69V14.09q0-2.67-1.77-2.67h-.67c-1.13,0-1.69.89-1.69,2.67v5.43c0,1.79.56,2.69,1.69,2.69h.67C55,22.21,55.62,21.31,55.62,19.52Z"/><path class="cls-1" d="M85.35,29.21H77V14.72c0-1.49-.61-2.23-1.83-2.23a1.56,1.56,0,0,0-1.35.68,2.68,2.68,0,0,0-.48,1.58V29.21H64.91V4.53H72.8v.83a7.19,7.19,0,0,1,1.91-.73A11.37,11.37,0,0,1,77,4.26a8.52,8.52,0,0,1,6,2,7.58,7.58,0,0,1,2.39,6Z"/><path class="cls-1" d="M105.83,29.21h-9V0h9V9.46h5.33V0h9V29.21h-9V19h-5.33Z"/><path class="cls-1" d="M141.87,14.09v6.56H130.31v.46c0,1.38.65,2.07,1.93,2.07h.44c.95,0,1.46-.52,1.53-1.57h7.69a8.11,8.11,0,0,1-2.45,5.93,7.55,7.55,0,0,1-5.37,2.23h-3.73a8,8,0,0,1-6.08-2.61,9.9,9.9,0,0,1-2.45-7V14a10.3,10.3,0,0,1,2.53-7.17A8.6,8.6,0,0,1,131.08,4h1.56a8.5,8.5,0,0,1,6.75,2.85A10.69,10.69,0,0,1,141.87,14.09Zm-12.29.76h4.69c0-2.46-.67-3.69-2-3.69h-.7C130.23,11.16,129.58,12.39,129.58,14.85Z"/><path class="cls-1" d="M163,14.09v6.56H151.39v.46c0,1.38.65,2.07,1.93,2.07h.44c1,0,1.46-.52,1.53-1.57H163a8.08,8.08,0,0,1-2.45,5.93,7.55,7.55,0,0,1-5.37,2.23h-3.73a8,8,0,0,1-6.08-2.61,9.9,9.9,0,0,1-2.45-7V14a10.3,10.3,0,0,1,2.53-7.17A8.6,8.6,0,0,1,152.16,4h1.56a8.49,8.49,0,0,1,6.75,2.85A10.69,10.69,0,0,1,163,14.09Zm-12.29.76h4.7q0-3.69-2-3.69h-.69C151.31,11.16,150.66,12.39,150.66,14.85Z"/><path class="cls-1" d="M203,0l-5.42,29.21h-7.06l-2.73-11.83-2.77,11.83H178L172.64,0h8.43l2,13L185.09.1h5.47L192.65,13l1.94-13Z"/><path class="cls-1" d="M222.43,21.21a8,8,0,0,1-2.53,6.4,9.87,9.87,0,0,1-6.63,2.16h-1.8a9.66,9.66,0,0,1-6.56-2.18,8,8,0,0,1-2.53-6.38V12.42c0-2.8.84-4.9,2.53-6.33A9.84,9.84,0,0,1,211.47,4h1.8a10,10,0,0,1,6.63,2.13,7.84,7.84,0,0,1,2.53,6.33Zm-7.8-1.69V14.09c0-1.78-.58-2.67-1.76-2.67h-.67c-1.13,0-1.7.89-1.7,2.67v5.43c0,1.79.57,2.69,1.7,2.69h.67C214.05,22.21,214.63,21.31,214.63,19.52Z"/><path class="cls-1" d="M244.37,29.21H236V14.72c0-1.49-.61-2.23-1.83-2.23a1.56,1.56,0,0,0-1.35.68,2.68,2.68,0,0,0-.48,1.58V29.21h-8.39V4.53h7.89v.83a7.19,7.19,0,0,1,1.91-.73A11.37,11.37,0,0,1,236,4.26a8.52,8.52,0,0,1,6,2,7.61,7.61,0,0,1,2.39,6Z"/></g></g></svg>