<svg xmlns="http://www.w3.org/2000/svg" viewBox="0 0 233.37 32.66"><defs><style>.cls-1{fill:#777;}</style></defs><title>y_name</title><g id="Layer_2" data-name="Layer 2"><g id="Layer_1-2" data-name="Layer 1"><path class="cls-1" d="M27.26.64l-9.33,21.7V30.2H9.2V22.38L0,.64H9.6l4.05,10.62,4-10.62Z"/><path class="cls-1" d="M44.48,30.2h-7v-.31a6.87,6.87,0,0,1-3.43.74H32.49A8,8,0,0,1,27,28.8a6.25,6.25,0,0,1-2.08-4.91V19.61A5.21,5.21,0,0,1,27,15.13a9.43,9.43,0,0,1,5.68-1.52,7.79,7.79,0,0,1,3.37.54q0-1.65-2.73-1.65a17.21,17.21,0,0,0-4,.53,12.77,12.77,0,0,0-3.71,1.46V6.27A18.49,18.49,0,0,1,29.93,5a32.41,32.41,0,0,1,5.56-.58c3.19,0,5.48.58,6.89,1.88s2.1,3.43,2.1,6.42ZM36.8,22.92v-2.7A2.62,2.62,0,0,0,35,19.71H34a1.78,1.78,0,0,0-1.29.44,1.56,1.56,0,0,0-.46,1.18v.61a1.63,1.63,0,0,0,.51,1.25,1.94,1.94,0,0,0,1.38.47H35A1.92,1.92,0,0,0,36.8,22.92Z"/><path class="cls-1" d="M67.2,30.2H58.71V15.54c0-1.51-.62-2.26-1.86-2.26a1.57,1.57,0,0,0-1.36.69,2.66,2.66,0,0,0-.49,1.6V30.2H46.51v-25h8v.85a7.39,7.39,0,0,1,1.94-.75A11.52,11.52,0,0,1,58.71,5a8.59,8.59,0,0,1,6.06,2,7.65,7.65,0,0,1,2.43,6.12Z"/><path class="cls-1" d="M76.47,4.89h12.7V25.11a8.42,8.42,0,0,1-1.67,5.56c-1.11,1.32-3,2-5.64,2H70.53V25.85h8.6a1.49,1.49,0,0,0,1.18-.34,2.22,2.22,0,0,0,.27-1.31,3.81,3.81,0,0,1-1.25.23h-3q-4.18,0-5.88-1.65t-1.71-5.53v-5q0-3.75,1.86-5.56C71.8,5.49,73.77,4.89,76.47,4.89Zm4.31,11.45V12.27H78.72a2.86,2.86,0,0,0-1.56.35,1.64,1.64,0,0,0-.56,1.47V15.3a2,2,0,0,0,.51,1.62,2.92,2.92,0,0,0,1.78.4h1a1,1,0,0,0,.69-.18A1.16,1.16,0,0,0,80.78,16.34Z"/><path class="cls-1" d="M109.9,30.2h-9.1V.64h9.1v9.57h5.39V.64h9.1V30.2h-9.1V19.82H109.9Z"/><path class="cls-1" d="M146.36,22.11q0,4.28-2.56,6.47a10,10,0,0,1-6.71,2.19h-1.82a9.82,9.82,0,0,1-6.64-2.21,8.07,8.07,0,0,1-2.56-6.45v-8.9c0-2.83.86-5,2.56-6.4a10,10,0,0,1,6.64-2.16h1.82a10.05,10.05,0,0,1,6.71,2.16q2.56,2.16,2.56,6.4Zm-7.89-1.72V14.9c0-1.8-.59-2.7-1.78-2.7H136c-1.14,0-1.72.9-1.72,2.7v5.49c0,1.82.58,2.73,1.72,2.73h.68C137.88,23.12,138.47,22.21,138.47,20.39Z"/><path class="cls-1" d="M168.57,30.2h-8.49V15.54c0-1.51-.62-2.26-1.86-2.26a1.57,1.57,0,0,0-1.36.69,2.66,2.66,0,0,0-.49,1.6V30.2h-8.49v-25h8v.85a7.39,7.39,0,0,1,1.94-.75A11.52,11.52,0,0,1,160.08,5a8.59,8.59,0,0,1,6.06,2,7.65,7.65,0,0,1,2.43,6.12Z"/><path class="cls-1" d="M177.84,4.89h12.7V25.11a8.42,8.42,0,0,1-1.67,5.56c-1.11,1.32-3,2-5.64,2H171.9V25.85h8.6a1.49,1.49,0,0,0,1.18-.34A2.22,2.22,0,0,0,182,24.2a3.81,3.81,0,0,1-1.25.23h-3q-4.18,0-5.88-1.65t-1.71-5.53v-5q0-3.75,1.86-5.56C173.17,5.49,175.14,4.89,177.84,4.89Zm4.31,11.45V12.27h-2.06a2.86,2.86,0,0,0-1.56.35,1.64,1.64,0,0,0-.56,1.47V15.3a2,2,0,0,0,.51,1.62,2.92,2.92,0,0,0,1.78.4h1a1,1,0,0,0,.69-.18A1.16,1.16,0,0,0,182.15,16.34Z"/><path class="cls-1" d="M208.4,18.47H194.21V11H208.4Z"/><path class="cls-1" d="M221.81,7.85h-9.2V0h9.2Zm-.2,22.35h-8.79V9.94h8.79Z"/><path class="cls-1" d="M233.37,30.2h-8.86V.54h8.86Z"/></g></g></svg>